<svg width="513" height="411" viewBox="0 0 513 411" fill="none" xmlns="http://www.w3.org/2000/svg">
<g id="guide">
<path id="&#232;&#183;&#175;&#229;&#190;&#132;" d="M2 22.35V388.7C2 399.9 11.15 409 22.4 409H490.6C501.85 409 511 399.9 511 388.65V22.35C511 11.1 501.85 2 490.6 2H22.4C11.15 2 2 11.1 2 22.35Z" fill="#10171D" stroke="white" stroke-width="2.98"/>
<path id="&#232;&#183;&#175;&#229;&#190;&#132;_2" d="M35.9004 342.35V368.35C35.9004 370.55 37.7004 372.35 39.9004 372.35H61.9004C64.1004 372.35 65.9004 370.55 65.9004 368.35V342.35C65.9004 340.15 64.1004 338.35 61.9004 338.35H39.9004C37.7004 338.35 35.9004 340.15 35.9004 342.35Z" fill="#000211"/>
<path id="&#229;&#189;&#162;&#231;&#138;&#182;" fill-rule="evenodd" clip-rule="evenodd" d="M61.9 338.35H39.9C37.7 338.35 35.9 340.15 35.9 342.35V348.5H31.6C29.9 348.5 28.5 349.9 28.5 351.6V359.9C28.5 361.6 29.9 363 31.6 363H35.9V368.35C35.9 370.55 37.7 372.35 39.9 372.35H61.9C64.1 372.35 65.9 370.55 65.9 368.35V342.35C65.9 340.15 64.1 338.35 61.9 338.35ZM63 369.5H39V363H51.9C53.6 363 55 361.6 55 359.9V351.6C55 349.9 53.6 348.5 51.9 348.5H39V341.5H63V369.5Z" fill="#00CCFF"/>
<path id="&#229;&#189;&#162;&#231;&#138;&#182;_2" fill-rule="evenodd" clip-rule="evenodd" d="M43.3 358.9C43.8 358.5 44.05 357.95 44.05 357.25C44.05 356.7 43.95 356.3 43.6 355.95C43.2 355.5 42.7 355.15 42.1 354.9C41.55 354.65 41.2 354.45 41.05 354.35C40.9 354.25 40.8 354.15 40.75 354.05C40.7396 354.019 40.7292 353.99 40.7192 353.962L40.7192 353.962L40.7191 353.962C40.6813 353.856 40.65 353.769 40.65 353.65C40.65 353.4 40.75 353.15 40.9 353.05C41.05 352.95 41.3 352.85 41.6 352.85C41.85 352.85 42.15 352.9 42.4 352.95C42.6424 352.99 42.9174 353.096 43.225 353.214L43.2251 353.214L43.2251 353.214C43.2982 353.242 43.3732 353.271 43.45 353.3L44 352C43.6 351.85 43.2 351.7 42.85 351.6C42.5 351.5 42.1 351.45 41.7 351.45C41 351.4 40.3 351.65 39.75 352.05C39.3 352.45 39.05 353 39.05 353.7C39.05 354 39.1 354.35 39.25 354.65C39.4 354.95 39.6 355.2 39.85 355.4C40.2 355.65 40.55 355.9 40.95 356.05C41.45 356.3 41.8 356.5 41.95 356.6C42.1 356.7 42.25 356.8 42.35 356.95C42.45 357.05 42.5 357.2 42.5 357.35C42.5 357.6 42.4 357.8 42.2 357.95C42 358.1 41.7 358.15 41.35 358.15C41.05 358.15 40.7 358.1 40.35 358C40 357.9 39.55 357.75 39 357.5V359C39.65 359.35 40.45 359.5 41.2 359.5C42.1 359.5 42.8 359.3 43.3 358.9ZM37.95 354C37.95 354.85 37.7 355.5 37.15 355.95C36.6 356.4 35.85 356.6 34.9 356.6H34.2V359.4H32.5V351.55H35C35.95 351.55 36.65 351.75 37.15 352.15C37.7 352.6 37.95 353.2 37.95 354ZM34.2 352.95V355.3H34.75C35.25 355.3 35.65 355.2 35.9 355C36.15 354.8 36.3 354.5 36.3 354.1C36.3 353.7 36.2 353.4 36 353.25C35.8 353.05 35.45 352.95 35 352.95H34.2ZM52 355.4C52 356.7 51.65 357.7 50.9 358.35C50.15 359.05 49.1 359.4 47.7 359.4H45.5V351.55H47.95C49.25 351.55 50.25 351.9 50.95 352.55C51.65 353.25 52 354.2 52 355.4ZM48 352.9C49.5 352.9 50.25 353.75 50.25 355.45C50.25 357.2 49.45 358.05 47.8 358H47.1V352.9H48Z" fill="black"/>
<path id="&#232;&#183;&#175;&#229;&#190;&#132;_3" d="M113.9 342.35V368.35C113.9 370.55 115.7 372.35 117.9 372.35H139.9C142.1 372.35 143.9 370.55 143.9 368.35V342.35C143.9 340.15 142.1 338.35 139.9 338.35H117.9C115.7 338.35 113.9 340.15 113.9 342.35Z" fill="#000211"/>
<path id="&#229;&#189;&#162;&#231;&#138;&#182;_3" fill-rule="evenodd" clip-rule="evenodd" d="M139.9 338.35H117.9C115.7 338.35 113.9 340.15 113.9 342.35V348.5H109.6C107.9 348.5 106.5 349.9 106.5 351.6V359.9C106.5 361.6 107.9 363 109.6 363H113.9V368.35C113.9 370.55 115.7 372.35 117.9 372.35H139.9C142.1 372.35 143.9 370.55 143.9 368.35V342.35C143.9 340.15 142.1 338.35 139.9 338.35ZM141 369.5H117V363H129.9C131.6 363 133 361.6 133 359.9V351.6C133 349.9 131.6 348.5 129.9 348.5H117V341.5H141V369.5Z" fill="#FF00C4"/>
<path id="&#229;&#189;&#162;&#231;&#138;&#182;_4" fill-rule="evenodd" clip-rule="evenodd" d="M117.05 355.45L119.7 359.4H117.8L116 356.45L114.2 359.4H112.4L115 355.35L112.55 351.55H114.4L116.1 354.4L117.75 351.55H119.55L117.05 355.45ZM127.2 355.4C127.2 356.7 126.85 357.7 126.1 358.35C125.35 359.05 124.3 359.4 122.9 359.4H120.7V351.55H123.15C124.45 351.55 125.45 351.9 126.15 352.55C126.85 353.25 127.2 354.2 127.2 355.4ZM123.2 352.9C124.7 352.9 125.45 353.75 125.45 355.45C125.45 357.2 124.65 358.05 123 358H122.3V352.9H123.2Z" fill="black"/>
<path id="&#232;&#183;&#175;&#229;&#190;&#132;_4" d="M194.85 341.3L205.55 340.15L216.25 341.3L224.55 352.45L205.55 374.6L186.55 352.45L194.85 341.3Z" fill="#FDB300"/>
<path id="&#229;&#189;&#162;&#231;&#138;&#182;_5" fill-rule="evenodd" clip-rule="evenodd" d="M205.55 374.6L186.55 352.45H194.25L205.55 374.6ZM205.6 374.6L216.9 352.45H224.6L205.6 374.6Z" fill="#EA6C00"/>
<path id="&#232;&#183;&#175;&#229;&#190;&#132;_5" d="M205.6 374.6L216.9 352.45H194.25L205.6 374.6Z" fill="#FDAD00"/>
<g id="&#231;&#188;&#150;&#231;&#187;&#132;">
<path id="&#229;&#189;&#162;&#231;&#138;&#182;_6" fill-rule="evenodd" clip-rule="evenodd" d="M194.9 341.3L205.6 340.15L194.3 352.45L194.9 341.3ZM205.6 340.15L216.9 352.45L216.3 341.3L205.6 340.15Z" fill="#FDD231"/>
<path id="&#229;&#189;&#162;&#231;&#138;&#182;_7" fill-rule="evenodd" clip-rule="evenodd" d="M194.85 341.3L194.25 352.45H186.55L194.85 341.3ZM216.3 341.3L224.6 352.45H216.9L216.3 341.3Z" fill="#FDAD00"/>
<path id="&#232;&#183;&#175;&#229;&#190;&#132;_6" d="M205.6 340.15L194.3 352.4H216.95L205.6 340.15Z" fill="#FEEEB7"/>
</g>
<g id="&#231;&#188;&#150;&#231;&#187;&#132;_2">
<path id="&#230;&#164;&#173;&#229;&#156;&#134;&#229;&#189;&#162;" d="M289.851 369.75C295.788 369.75 300.601 367.668 300.601 365.1C300.601 362.532 295.788 360.45 289.851 360.45C283.914 360.45 279.101 362.532 279.101 365.1C279.101 367.668 283.914 369.75 289.851 369.75Z" fill="black"/>
<path id="&#232;&#183;&#175;&#229;&#190;&#132;_7" d="M276.451 344.55C276.451 344.55 279.501 350.8 286.601 350.65C301.451 350.25 304.101 342.5 304.451 341.4C304.801 340.3 305.401 340.45 305.551 341.5C310.401 385.5 271.901 366.65 270.551 359.15C278.201 356.9 276.351 352.6 276.351 352.6L276.451 344.55Z" fill="url(#paint0_radial)" stroke="#2E3436" stroke-width="1.055"/>
<path id="&#232;&#183;&#175;&#229;&#190;&#132;_8" d="M282.101 363.1C289.201 364.5 292.851 363.2 294.951 361.55C294.401 360.8 293.451 360.05 293.451 360.05C293.451 360.05 295.951 360.75 296.801 361.85C297.651 362.95 297.151 363.65 296.901 365.1C296.401 363.85 295.451 363.35 295.301 362.85C293.401 365.55 288.651 365.4 282.101 363.1Z" fill="url(#paint1_linear)"/>
<path id="&#232;&#183;&#175;&#229;&#190;&#132;_9" opacity="0.18" fill-rule="evenodd" clip-rule="evenodd" d="M304.501 343.85C303.751 345.1 302.801 346.2 301.651 347.1C298.901 349.4 294.201 351.5 286.601 351.7C282.151 351.8 279.251 349.65 277.501 347.75L277.351 352.45C277.501 352.9 277.801 353.9 277.301 355.3C276.751 356.8 275.051 358.35 272.051 359.5C272.301 360.05 272.551 360.6 273.351 361.4C274.651 362.65 276.151 363.75 277.751 364.65C281.351 366.7 286.001 368.35 290.301 368.4C294.651 368.5 298.601 367.1 301.301 363.15C303.851 359.5 305.201 353.3 304.501 343.85V343.85Z" stroke="url(#paint2_linear)" stroke-width="1.055"/>
<path id="&#232;&#183;&#175;&#229;&#190;&#132;_10" d="M284.15 353.95C284.15 356.3 282.25 358.25 279.9 358.25C279.15 358.25 278.4 358.05 277.75 357.65C275.7 356.45 275 353.85 276.2 351.8C277.4 349.75 280 349.05 282.05 350.25C283.35 351 284.15 352.45 284.15 353.95Z" fill="url(#paint3_radial)" stroke="#888A85" stroke-width="1.055"/>
<path id="&#232;&#183;&#175;&#229;&#190;&#132;_11" d="M275.6 355.55C277.7 358.45 277.7 361.95 275.65 363.45C273.6 364.95 270.25 363.8 268.2 360.9C266.15 358 266.1 354.5 268.15 353C270.2 351.5 273.55 352.7 275.6 355.55Z" fill="url(#paint4_radial)" stroke="black" stroke-width="1.055"/>
<path id="&#232;&#183;&#175;&#229;&#190;&#132;_12" d="M282.951 354.6C282.951 355.75 282.001 356.65 280.901 356.65C279.801 356.65 278.851 355.7 278.851 354.6C278.851 353.5 279.801 352.55 280.901 352.55C282.001 352.55 282.951 353.45 282.951 354.6Z" fill="#2E3436" stroke="black" stroke-width="1.055"/>
<path id="&#232;&#183;&#175;&#229;&#190;&#132;_13" opacity="0.28" fill-rule="evenodd" clip-rule="evenodd" d="M268.55 353.95C267.9 354.45 267.5 355.3 267.55 356.45C267.65 357.85 268.15 359.2 269 360.3C269.8 361.45 270.95 362.3 272.25 362.75C273.35 363.1 274.25 363 274.95 362.5C275.6 362 276 361.1 275.95 359.95C275.9 358.55 275.4 357.25 274.55 356.15C273.75 355.05 272.6 354.2 271.3 353.75C270.15 353.35 269.2 353.45 268.55 353.95V353.95Z" stroke="url(#paint5_linear)" stroke-width="1.05"/>
<path id="&#229;&#189;&#162;&#231;&#138;&#182;_8" fill-rule="evenodd" clip-rule="evenodd" d="M280.05 355.1C280.85 355.1 281.5 354.45 281.5 353.65C281.5 352.85 280.9 352.2 280.05 352.2C279.25 352.2 278.6 352.85 278.6 353.65C278.6 354.45 279.25 355.1 280.05 355.1ZM270.7 357.85C271.3 357.45 271.65 356.7 271.65 355.9C271.65 355.15 271.3 354.4 270.7 353.95C270.15 353.55 269.4 353.55 268.85 353.95C268.25 354.35 267.9 355.1 267.9 355.9C267.9 356.65 268.25 357.4 268.85 357.85C269.4 358.25 270.15 358.25 270.7 357.85Z" fill="white"/>
<path id="&#232;&#183;&#175;&#229;&#190;&#132;_14" d="M293.75 354.4C293.75 357.2 291.5 359.45 288.75 359.45C287.85 359.45 287 359.2 286.2 358.75C283.8 357.35 282.95 354.3 284.35 351.85C285.75 349.45 288.8 348.6 291.25 350C292.8 350.95 293.75 352.6 293.75 354.4Z" fill="url(#paint6_radial)" stroke="#888A85" stroke-width="1.055"/>
<path id="&#232;&#183;&#175;&#229;&#190;&#132;_15" d="M292.35 355.15C292.35 356.5 291.25 357.6 289.95 357.6C288.6 357.6 287.5 356.5 287.5 355.15C287.5 353.8 288.6 352.75 289.9 352.75C291.25 352.75 292.35 353.8 292.35 355.15Z" fill="#2E3436" stroke="black" stroke-width="1.055"/>
<path id="&#232;&#183;&#175;&#229;&#190;&#132;_16" d="M290.65 354.05C290.65 355 289.9 355.75 288.95 355.75C288 355.75 287.25 355 287.25 354.05C287.25 353.1 288 352.35 288.95 352.35C289.9 352.35 290.65 353.1 290.65 354.05Z" fill="white"/>
<path id="&#232;&#183;&#175;&#229;&#190;&#132;_17" d="M304.1 369.45L305.1 367.5C301.45 364.85 294.75 362.9 294.75 362.9C293.6 362.35 293.2 363.4 294 364.1C294 364.1 299.75 368.2 304.1 369.45Z" fill="url(#paint7_linear)" stroke="#673907" stroke-width="1.055" stroke-linecap="round"/>
<path id="&#232;&#183;&#175;&#229;&#190;&#132;_18" d="M308.751 371.25L309.251 370.1L305.201 367.5L304.851 367.45L304.701 367C304.101 367.35 303.251 368.75 303.501 369.5L303.951 369.35L304.201 369.6L308.751 371.25Z" fill="url(#paint8_linear)" stroke="#888A85" stroke-width="1.055" stroke-linecap="round"/>
<path id="&#232;&#183;&#175;&#229;&#190;&#132;_19" d="M306.101 369.05L308.801 370.2" stroke="white" stroke-width="1.055" stroke-linecap="round" stroke-linejoin="round"/>
<path id="&#232;&#183;&#175;&#229;&#190;&#132;_20" d="M314.651 376.15C313.401 371.85 312.951 368.45 309.651 368.75C307.001 369 306.801 372.8 309.551 373.85C311.251 374.55 313.001 375.35 314.651 376.15Z" fill="url(#paint9_radial)"/>
<path id="&#232;&#183;&#175;&#229;&#190;&#132;_21" opacity="0.53" d="M309.85 369.1C310.45 368.95 311.05 369.25 311.25 369.85C311.3 370.05 311.3 370.25 311.25 370.4C311.05 371 310.4 371.3 309.85 371.1C309.35 370.95 309 370.4 309.1 369.9C309.15 369.55 309.45 369.25 309.85 369.1Z" fill="white"/>
<path id="&#232;&#183;&#175;&#229;&#190;&#132;_22" d="M305 367.55C305.25 367.45 305.55 367.55 305.75 367.7C306.05 368 306.05 368.45 305.8 368.75C305.5 369.05 305.05 369.05 304.75 368.8C304.45 368.5 304.45 368.05 304.7 367.75C304.75 367.65 304.85 367.55 305 367.55Z" fill="white"/>
<path id="&#232;&#183;&#175;&#229;&#190;&#132;_23" opacity="0.43" d="M313.051 373.6C313.051 373.6 312.651 372.05 311.751 371.25C311.451 370.95 311.851 370.55 312.151 370.9C312.801 371.7 313.051 373.6 313.051 373.6Z" fill="url(#paint10_linear)"/>
<path id="&#232;&#183;&#175;&#229;&#190;&#132;_24" d="M289.75 364.85C291.35 365 292.75 364.55 293.35 364.35C293.5 363.3 294.45 362.55 295.5 362.55L294.95 361.55C294.95 361.55 292.85 362.95 290.65 363.4L289.75 364.85Z" fill="url(#paint11_linear)"/>
</g>
<g id="&#231;&#188;&#150;&#231;&#187;&#132;_3">
<path id="&#232;&#183;&#175;&#229;&#190;&#132;_25" d="M381.85 337.5H367.15C365.2 337.5 363.65 339.05 363.65 341V342.15H385.4V341C385.35 339.05 383.8 337.5 381.85 337.5Z" fill="#706D6D"/>
<path id="&#232;&#183;&#175;&#229;&#190;&#132;_26" d="M395.35 342.2H353.65C351.35 342.2 349.5 344.05 349.5 346.35V367.6C349.5 369.9 351.35 371.75 353.65 371.75H395.35C397.65 371.75 399.5 369.9 399.5 367.6V346.35C399.5 344.05 397.65 342.2 395.35 342.2Z" fill="#BFBFBF"/>
<path id="&#232;&#183;&#175;&#229;&#190;&#132;_27" d="M399.5 346.85H349.5V367.05H399.5V346.85Z" fill="#414141"/>
<path id="&#232;&#183;&#175;&#229;&#190;&#132;_28" d="M374.5 343.45C367.05 343.45 360.95 349.5 360.95 356.95C360.95 364.4 367 370.5 374.5 370.5C381.95 370.5 388.05 364.45 388 356.95C388 349.5 381.95 343.45 374.5 343.45Z" fill="#E8E6E6"/>
<path id="&#232;&#183;&#175;&#229;&#190;&#132;_29" d="M374.5 347.4C369.2 347.4 364.9 351.7 364.9 357C364.9 362.3 369.2 366.6 374.5 366.6C379.8 366.6 384.1 362.3 384.1 357C384.1 351.7 379.8 347.4 374.5 347.4Z" fill="#1C1C1C"/>
<path id="&#232;&#183;&#175;&#229;&#190;&#132;_30" d="M370.55 350.15C369 350.1 367.65 351.3 367.6 352.85C367.55 354.4 368.75 355.75 370.3 355.8C370.4 355.8 370.45 355.8 370.55 355.8C372.1 355.75 373.35 354.4 373.25 352.85C373.2 351.4 372.05 350.2 370.55 350.15Z" fill="#686868"/>
<path id="&#232;&#183;&#175;&#229;&#190;&#132;_31" d="M396.4 347.75C395.75 347.75 395.2 348.3 395.2 348.95C395.2 349.6 395.75 350.15 396.4 350.15C397.05 350.15 397.6 349.6 397.6 348.95C397.6 348.3 397.05 347.75 396.4 347.75Z" fill="#DA0100"/>
</g>
<g id="&#231;&#188;&#150;&#231;&#187;&#132;_4">
<path id="&#232;&#183;&#175;&#229;&#190;&#132;_32" d="M432.5 344.9V370C432.5 372.75 434.8 375 437.6 375H478.3C481.1 375 483.35 372.75 483.4 370V344.9C483.4 342.15 481.1 339.9 478.3 339.9H437.6C434.8 339.85 432.5 342.1 432.5 344.9Z" fill="black"/>
<path id="&#229;&#189;&#162;&#231;&#138;&#182;_9" fill-rule="evenodd" clip-rule="evenodd" d="M452.45 347.85C452.1 347.95 451.8 348 451.45 348C450.8 348 450.35 347.8 450.05 347.45C449.7 347.05 449.55 346.5 449.55 345.8C449.55 345.1 449.75 344.55 450.05 344.2C450.35 343.85 450.85 343.65 451.45 343.65C451.8 343.65 452.15 343.75 452.45 343.9C452.7 344.05 452.95 344.3 453.05 344.6L454.25 344.25C453.85 343.2 452.95 342.65 451.45 342.65C450.4 342.65 449.65 342.9 449.05 343.45C448.45 344 448.2 344.8 448.2 345.8C448.2 346.85 448.5 347.65 449.05 348.2C449.6 348.75 450.4 349.05 451.4 349.05C452 349.05 452.55 348.95 453.1 348.75C453.6 348.6 454.05 348.3 454.4 347.95V345.65H451.65V346.6H453.2V347.45C453 347.6 452.75 347.75 452.45 347.85ZM447.25 345.7C447.4 345.4 447.5 345.05 447.5 344.65C447.55 344.1 447.3 343.6 446.95 343.2C446.55 342.85 445.95 342.7 445.2 342.7H442.35V348.9H443.65V346.7H445.2C445.7 346.7 446.1 346.6 446.45 346.45C446.8 346.25 447.05 346 447.25 345.7ZM437.45 348.6C437.9 348.9 438.4 349.05 438.95 349C439.55 349.05 440.1 348.85 440.5 348.5C440.85 348.15 441.05 347.65 441.05 347V342.75H438.5V343.75H439.75V347C439.75 347.35 439.7 347.6 439.55 347.75C439.4 347.9 439.2 348 438.95 348C438.7 348 438.5 347.9 438.35 347.75C438.2 347.6 438.1 347.35 438.05 347.05L436.75 347.25C436.85 347.85 437.1 348.3 437.45 348.6ZM446.2 344.7C446.2 344.05 445.8 343.7 445.05 343.7H443.7V345.7H445.1C445.45 345.7 445.75 345.6 445.95 345.45C446.1 345.3 446.2 345 446.2 344.7ZM465.85 344.65C465.85 345.05 465.75 345.4 465.6 345.7C465.4 346 465.15 346.25 464.8 346.45C464.45 346.6 464.05 346.7 463.55 346.7H462V348.9H460.7V342.7H463.55C464.3 342.7 464.9 342.85 465.3 343.2C465.65 343.6 465.85 344.1 465.85 344.65ZM463.35 343.7C464.1 343.7 464.5 344.05 464.5 344.7C464.5 345 464.4 345.3 464.25 345.45C464.05 345.6 463.75 345.7 463.4 345.7H462V343.7H463.35ZM472.15 348.9H470.6L467.85 344.1L467.872 344.293C467.914 344.663 467.95 344.986 467.95 345.2V348.85H466.8V342.65H468.3L471.1 347.5L471.083 347.35C471.039 346.961 471 346.611 471 346.3V342.7H472.15V348.9ZM477.35 347.85C477 347.95 476.7 348 476.35 348C475.75 348 475.3 347.8 474.95 347.45C474.6 347.05 474.45 346.5 474.45 345.8C474.45 345.1 474.65 344.55 474.95 344.2C475.25 343.85 475.75 343.65 476.35 343.65C476.7 343.65 477.05 343.75 477.35 343.9C477.6 344.05 477.85 344.3 477.95 344.6L479.15 344.25C478.75 343.2 477.85 342.65 476.35 342.65C475.3 342.65 474.55 342.9 473.95 343.45C473.35 344 473.1 344.8 473.1 345.8C473.1 346.85 473.4 347.65 473.95 348.2C474.5 348.75 475.3 349.05 476.3 349.05C476.9 349.05 477.45 348.95 478 348.75C478.5 348.6 478.95 348.3 479.3 347.95V345.65H476.55V346.6H478.1V347.45C477.9 347.6 477.65 347.75 477.35 347.85ZM440.75 357.55C441.1 357.55 441.4 357.5 441.75 357.4C442.05 357.3 442.3 357.15 442.5 357V356.15H440.95V355.2H443.7V357.5C443.35 357.85 442.9 358.15 442.4 358.3C441.85 358.5 441.3 358.6 440.7 358.6C439.7 358.6 438.9 358.3 438.35 357.75C437.8 357.2 437.5 356.4 437.5 355.35C437.5 354.35 437.75 353.55 438.35 353C438.95 352.45 439.7 352.2 440.75 352.2C442.25 352.2 443.15 352.75 443.55 353.8L442.35 354.15C442.25 353.85 442 353.6 441.75 353.45C441.45 353.3 441.1 353.2 440.75 353.2C440.15 353.2 439.65 353.4 439.35 353.75C439.05 354.1 438.85 354.65 438.85 355.35C438.85 356.05 439 356.6 439.35 357C439.65 357.35 440.15 357.5 440.75 357.55ZM444.9 358.45H446.2V352.25H444.9V358.45ZM452.05 353.25H448.7V355.15H451.95V356.15H448.7V358.45H447.4V352.25H452.05V353.25ZM463.5 353.25H465.55V352.25H460.15V353.25H462.2V358.45H463.5V353.25ZM467.55 358.45H466.25V352.25H467.55V358.45ZM470.1 353.25H473.45V352.25H468.8V358.45H470.1V356.15H473.35V355.15H470.1V353.25ZM479.05 353.25H475.7V355.15H478.95V356.15H475.7V358.45H474.4V352.25H479.05V353.25ZM441.95 367.6C442.4 367.3 442.65 366.8 442.65 366.2C442.65 365.95 442.6 365.7 442.45 365.4C442.35 365.2 442.25 365.05 442.1 364.9C441.95 364.75 441.75 364.6 441.5 364.5C441.25 364.4 440.8 364.25 440.2 364.15C439.7 364.05 439.35 363.95 439.2 363.9C439 363.85 438.9 363.75 438.8 363.65C438.75 363.55 438.7 363.4 438.7 363.25C438.7 362.75 439.1 362.5 439.9 362.5C440.25 362.5 440.55 362.55 440.75 362.7C440.95 362.85 441.1 363.05 441.15 363.3L442.45 363.15C442.4 362.65 442.1 362.2 441.7 361.95C441.3 361.7 440.75 361.6 439.95 361.6C439.15 361.6 438.55 361.75 438.1 362.05C437.65 362.35 437.45 362.8 437.45 363.35C437.45 363.55 437.5 363.75 437.55 363.95C437.65 364.25 437.85 364.55 438.15 364.7C438.3 364.8 438.45 364.9 438.65 364.95C438.706 364.964 438.774 364.982 438.852 365.003L438.853 365.003L438.853 365.003C439.054 365.056 439.326 365.128 439.65 365.2C439.825 365.25 440.012 365.3 440.2 365.35L440.2 365.35C440.388 365.4 440.575 365.45 440.75 365.5C440.8 365.533 440.856 365.561 440.911 365.589C441.022 365.644 441.133 365.7 441.2 365.8C441.3 365.95 441.35 366.1 441.35 366.25C441.35 366.85 440.85 367.1 439.95 367.1C439.5 367.1 439.15 367.05 438.9 366.9C438.65 366.75 438.5 366.55 438.4 366.2L437.15 366.4C437.25 366.95 437.6 367.4 438.05 367.7C438.65 368 439.3 368.15 439.95 368.1C440.85 368.1 441.5 367.9 441.95 367.6ZM446.75 368H445.4L443.05 361.8H444.45L445.75 365.8C445.817 365.967 445.883 366.2 445.965 366.485L445.965 366.485L445.965 366.485C446.006 366.628 446.05 366.783 446.1 366.95L446.2 366.55L446.45 365.75L447.75 361.75L449.05 361.8L446.75 368ZM454.45 366.5C454.25 366.65 454 366.8 453.7 366.9C453.35 367 453.05 367.05 452.7 367.05C452.1 367.05 451.65 366.85 451.3 366.5C450.95 366.1 450.8 365.55 450.8 364.85C450.8 364.15 451 363.6 451.3 363.25C451.6 362.9 452.1 362.7 452.7 362.7C453.05 362.7 453.4 362.8 453.7 362.95C453.95 363.1 454.2 363.35 454.3 363.65L455.5 363.3C455.1 362.25 454.2 361.7 452.7 361.7C451.65 361.7 450.9 361.95 450.3 362.5C449.7 363.05 449.45 363.85 449.45 364.85C449.45 365.9 449.75 366.7 450.3 367.25C450.85 367.8 451.65 368.1 452.65 368.1C453.25 368.1 453.8 368 454.35 367.8C454.85 367.65 455.3 367.35 455.65 367V364.7H452.9V365.65H454.45V366.5ZM467.1 363.75C467.1 364.15 467 364.5 466.85 364.8C466.65 365.1 466.4 365.35 466.05 365.55C465.7 365.7 465.3 365.8 464.8 365.8H463.25V368H461.95V361.8H464.8C465.55 361.8 466.15 361.95 466.55 362.3C466.9 362.65 467.15 363.2 467.1 363.75ZM464.65 362.75C465.4 362.75 465.8 363.1 465.8 363.75C465.8 364.1 465.7 364.35 465.55 364.5C465.35 364.65 465.05 364.75 464.7 364.75H463.3V362.75H464.65ZM473.65 364.85C473.65 365.5 473.5 366.05 473.25 366.55C473 367 472.65 367.4 472.15 367.65C471.7 367.9 471.15 368.05 470.55 368.05H468V361.85H470.3C471.35 361.85 472.2 362.1 472.75 362.65C473.35 363.1 473.65 363.85 473.65 364.85ZM471.75 363.35C472.15 363.7 472.3 364.2 472.3 364.85C472.3 365.5 472.15 366 471.75 366.4C471.4 366.8 470.9 367 470.4 367H469.3V362.8H470.25C470.9 362.8 471.4 363 471.75 363.35ZM479.3 362.8H475.95V364.7H479.2V365.7H475.95V368H474.65V361.8H479.3V362.8ZM455.05 372.55H456.35V371.2H455.05V372.55ZM458.9 372.55H457.6V371.2H458.9V372.55ZM460.15 372.55H461.45V371.2H460.15V372.55Z" fill="white"/>
</g>
<path id="&#229;&#189;&#162;&#231;&#138;&#182;_10" fill-rule="evenodd" clip-rule="evenodd" d="M198.5 395.35H200.25L196.4 390.25L200.05 386.4H198.3L194.35 390.75V383.05H192.85V395.35H194.35V392.15L195.45 391.25L198.5 395.35ZM56.5004 392.1C56.5004 393.2 56.1004 394 55.2004 394.6C54.3504 395.2 53.1504 395.5 51.6504 395.5C48.8004 395.5 47.1504 394.5 46.7004 392.55L48.2504 392.25C48.4004 392.9 48.8004 393.45 49.4004 393.8C50.0004 394.15 50.7504 394.3 51.7504 394.3C52.8004 394.3 53.5504 394.15 54.1004 393.8C54.6504 393.5 54.9504 392.9 54.9504 392.25C54.9504 391.85 54.8504 391.55 54.7004 391.3C54.5004 391.05 54.2504 390.85 53.9504 390.7C53.6504 390.55 53.2504 390.4 52.8004 390.3L51.3504 389.95C50.6504 389.8 49.9004 389.6 49.2504 389.35C48.8504 389.2 48.4504 388.95 48.1004 388.65C47.8504 388.4 47.6004 388.1 47.4504 387.75C47.3004 387.4 47.2504 387 47.2504 386.6C47.2504 385.6 47.6504 384.85 48.4004 384.3C49.1504 383.75 50.2504 383.5 51.7004 383.5C53.0504 383.5 54.0504 383.7 54.7504 384.1C55.4504 384.5 55.9504 385.2 56.2504 386.15L54.7004 386.4C54.5504 385.85 54.2004 385.35 53.7004 385.05C53.1004 384.75 52.4004 384.6 51.7004 384.65C50.7504 384.65 50.0504 384.8 49.5504 385.1C49.0504 385.4 48.8004 385.9 48.8004 386.5C48.8004 386.85 48.9004 387.15 49.1004 387.4C49.3004 387.65 49.5504 387.85 49.9504 388C50.3004 388.15 51.0504 388.35 52.1004 388.6L53.2004 388.85L54.2504 389.15C54.6004 389.25 54.9004 389.4 55.1504 389.55C55.4504 389.7 55.7004 389.9 55.9004 390.15C56.1004 390.4 56.3004 390.65 56.4004 390.95L56.4155 391.07L56.4155 391.07C56.46 391.421 56.5004 391.74 56.5004 392.1ZM45.0004 387.2C45.0004 388.3 44.6504 389.2 43.9004 389.85C43.2004 390.5 42.2004 390.85 40.9504 390.85H37.5004V395.4H35.9004V383.75H40.8504C42.1504 383.75 43.2004 384.05 43.9004 384.65C44.6504 385.2 45.0004 386.05 45.0004 387.2ZM33.0004 395.35H31.4004V393.5H33.0004V395.35ZM40.6504 384.95C42.5004 384.95 43.4004 385.7 43.4004 387.2C43.4004 388.75 42.5504 389.55 40.7004 389.55H37.5004V384.95H40.6504ZM68.0504 392.55C68.5004 391.65 68.7504 390.6 68.7504 389.4C68.7504 387.55 68.2004 386.15 67.1504 385.15C66.0504 384.15 64.5504 383.65 62.5504 383.65H58.6504V395.3H63.0504C64.1004 395.35 65.1504 395.1 66.0504 394.6C66.9004 394.15 67.6004 393.4 68.0504 392.55ZM67.1504 389.4C67.1504 387.95 66.7504 386.85 65.9504 386.1C65.1504 385.35 64.0004 384.95 62.5004 384.95H60.2504V394.1H62.8504C63.7004 394.1 64.4504 393.9 65.1004 393.55C65.7504 393.15 66.3004 392.6 66.6004 391.95C67.0004 391.2 67.1504 390.35 67.1504 389.4ZM113.75 395.35H115.35V393.5H113.75V395.35ZM127.9 395.35H126.15L122.65 390.25L119.05 395.35H117.3L121.75 389.3L117.65 383.7H119.4L122.65 388.3L125.8 383.7H127.55L123.55 389.25L127.9 395.35ZM139.05 392.55C139.5 391.65 139.75 390.6 139.75 389.4C139.75 387.55 139.2 386.15 138.15 385.15C137.05 384.15 135.55 383.65 133.55 383.65H129.65V395.3H134.05C135.1 395.35 136.15 395.1 137.05 394.6C137.9 394.15 138.6 393.4 139.05 392.55ZM138.15 389.4C138.15 387.95 137.75 386.85 136.95 386.1C136.15 385.35 135 384.95 133.5 384.95H131.25V394.1H133.85C134.7 394.1 135.45 393.9 136.1 393.55C136.75 393.15 137.3 392.6 137.6 391.95C138 391.2 138.15 390.35 138.15 389.4ZM180 395.35H181.6V393.5H180V395.35ZM191.05 392.85C191.05 393.7 190.75 394.35 190.1 394.8C189.45 395.25 188.55 395.5 187.4 395.5C186.3 395.5 185.4 395.3 184.8 394.95C184.2 394.55 183.75 393.95 183.6 393.2L184.9 392.95C185 393.4 185.3 393.8 185.7 394C186.1 394.2 186.65 394.35 187.35 394.35C188.1 394.35 188.65 394.25 189 394C189.35 393.75 189.55 393.4 189.55 392.95C189.55 392.6 189.45 392.3 189.2 392.1C188.85 391.85 188.45 391.65 188 391.55L186.95 391.25C186.3 391.1 185.7 390.9 185.1 390.6C184.75 390.4 184.45 390.15 184.25 389.8C184.05 389.45 183.95 389.1 183.95 388.7C183.95 387.9 184.25 387.25 184.85 386.85C185.45 386.4 186.3 386.2 187.4 386.2C188.4 386.2 189.2 386.35 189.75 386.7C190.35 387.05 190.75 387.7 190.85 388.35L189.5 388.5C189.4 388.1 189.2 387.8 188.8 387.6C188.35 387.35 187.85 387.25 187.35 387.25C186.65 387.25 186.15 387.35 185.85 387.55C185.55 387.75 185.35 388.1 185.35 388.5C185.35 388.75 185.4 388.95 185.55 389.15C185.7 389.35 185.9 389.45 186.15 389.55C186.336 389.624 186.686 389.726 187.2 389.875C187.38 389.927 187.58 389.985 187.8 390.05C188.6 390.25 189.15 390.45 189.5 390.6C189.85 390.75 190.1 390.95 190.3 391.15C190.85 391.65 191.1 392.25 191.05 392.85ZM208.9 391.15H202.5C202.5 392.15 202.7 392.95 203.15 393.55C203.6 394.1 204.2 394.4 205 394.4C205.65 394.4 206.15 394.25 206.55 394C206.9 393.75 207.2 393.4 207.35 393L208.65 393.4C208.1 394.8 206.9 395.5 205 395.5C203.65 395.5 202.65 395.1 201.95 394.3C201.25 393.5 200.9 392.35 200.9 390.8C200.9 389.3 201.25 388.2 201.95 387.4C202.65 386.6 203.65 386.2 204.95 386.2C207.6 386.2 208.9 387.8 208.9 390.95V391.15ZM207.35 390.05H202.5C202.5 389.3 202.75 388.6 203.15 388.1C203.6 387.6 204.15 387.35 204.9 387.35C205.6 387.35 206.2 387.55 206.6 388C207.05 388.4 207.25 389.1 207.35 390.05ZM214.3 394.15V395.25C213.8 395.4 213.3 395.45 212.8 395.45C211.6 395.45 211 394.8 211 393.4V387.4H209.95V386.3H211.05L211.5 384.3H212.5V386.3H214.15V387.4H212.5V393.05C212.5 393.5 212.55 393.8 212.7 393.95C212.85 394.1 213.1 394.2 213.45 394.2C213.65 394.3 213.9 394.25 214.3 394.15ZM217.25 393.45C216.9 392.9 216.7 392 216.7 390.8C216.7 389.55 216.85 388.55 217.2 388C217.55 387.45 218.1 387.2 218.9 387.2C219.5 387.2 219.95 387.35 220.25 387.65C220.6 388 220.8 388.4 220.85 388.85L222.4 388.75C222.3 388 221.85 387.3 221.25 386.8C220.65 386.35 219.85 386.1 218.95 386.1C217.7 386.1 216.75 386.5 216.1 387.3C215.45 388.1 215.1 389.25 215.1 390.75C215.1 392.25 215.45 393.4 216.1 394.2C216.8 395 217.75 395.4 219 395.4C219.85 395.45 220.7 395.2 221.35 394.65C221.95 394.15 222.35 393.4 222.45 392.6L220.95 392.5C220.9 393.05 220.7 393.5 220.3 393.85C219.95 394.15 219.5 394.3 218.95 394.3C218.2 394.3 217.65 394.05 217.25 393.45ZM225.55 387.9C225.85 387.4 226.25 386.95 226.75 386.6C227.25 386.3 227.85 386.15 228.45 386.2C229.45 386.2 230.15 386.45 230.6 386.95C231.05 387.45 231.3 388.25 231.3 389.35V395.35H229.8V389.65C229.8 389 229.75 388.55 229.6 388.25C229.5 387.95 229.3 387.7 229.05 387.55C228.7 387.4 228.35 387.3 227.95 387.35C227.25 387.35 226.7 387.6 226.25 388.1C225.8 388.65 225.6 389.35 225.6 390.05V395.35H224.1V383.05H225.6V386.25C225.6 386.6 225.6 386.95 225.55 387.3V387.9ZM271.85 395.35H273.45V393.5H271.85V395.35ZM286 395.35H284.25L280.75 390.25L277.15 395.35H275.4L279.85 389.3L275.75 383.7H277.5L280.75 388.3L283.9 383.7H285.65L281.65 389.25L286 395.35ZM289.9 386.05C290.65 385.2 291.65 384.8 292.95 384.8C293.7 384.75 294.45 384.95 295.05 385.3C295.65 385.65 296.1 386.2 296.35 386.85L297.85 386.35C297.5 385.45 296.85 384.7 296 384.2C295.2 383.7 294.15 383.45 292.9 383.45C291.1 383.45 289.7 383.95 288.7 385.05C287.7 386.15 287.2 387.6 287.2 389.45C287.15 390.6 287.4 391.7 287.85 392.7C288.25 393.6 288.95 394.3 289.8 394.8C290.65 395.3 291.65 395.55 292.85 395.55C293.95 395.55 295 395.3 295.9 394.75C296.8 394.2 297.5 393.4 297.95 392.45L296.65 391.8C295.85 393.4 294.6 394.2 292.95 394.2C291.8 394.25 290.65 393.75 289.9 392.9C289.2 392.05 288.8 390.9 288.8 389.45C288.8 388 289.2 386.9 289.9 386.05ZM308.4 384.95H301.65V389.3H308.2V390.6H301.65V395.35H300.05V383.7H308.4V384.95ZM366.05 395.35H367.9L364.55 390.35C365.35 390.25 366.1 389.85 366.65 389.25C367.15 388.65 367.4 387.9 367.4 387.05C367.45 386.1 367.05 385.2 366.3 384.6C365.6 384 364.55 383.7 363.25 383.7H357.75V395.35H359.35V390.5H363L366.05 395.35ZM365.85 387C365.85 386.3 365.6 385.8 365.15 385.45C364.7 385.1 364.05 384.9 363.15 384.9H359.4V389.2H363.25C364.1 389.2 364.75 389 365.2 388.6C365.6 388.25 365.9 387.65 365.85 387ZM378.4 395.35H380L375.3 383.7H373.5L368.7 395.35H370.35L371.7 391.95H377.05L378.4 395.35ZM374.6 385.55L374.35 384.85L374.25 385.1C374.1 385.55 373.9 386.15 373.65 386.85L372.15 390.7H376.55L375.05 386.85C374.95 386.45 374.8 386.05 374.6 385.55ZM392 395.3L395.45 383.65L393.8 383.55C392.98 386.522 392.367 388.709 391.972 390.12L391.97 390.125C391.668 391.203 391.494 391.827 391.45 392L391.1 393.55L391 393.85L390.25 390.85L388.2 383.6H386.7C386.445 384.507 386.21 385.343 385.994 386.107C385.071 389.384 384.522 391.332 384.4 391.9C384.25 392.65 384.1 393.3 383.95 393.9C383.75 392.95 383.5 392 383.25 391.05L381.15 383.65H379.5L382.95 395.3H384.85C386.25 390.2 387 387.45 387.1 387L387.45 385.4C387.7 386.6 387.9 387.45 388.05 387.9L390.1 395.3H392ZM454.15 395.35H452.55L451.2 391.95H445.85L444.5 395.35H442.85L447.65 383.7H449.45L454.15 395.35ZM448.5 384.85L448.75 385.55C448.9 386.05 449.05 386.45 449.2 386.85L450.7 390.7H446.3L447.8 386.85C448.05 386.15 448.25 385.55 448.4 385.1L448.5 384.85ZM465.1 395.35H463.2L456.95 385.4L457 386.2L457.05 387.6V395.35H455.65V383.7H457.5L463.85 393.7C463.834 393.346 463.818 393.029 463.804 392.744C463.773 392.143 463.75 391.689 463.75 391.35V383.7H465.2L465.1 395.35ZM473 390.5L477.5 383.65H475.75L472.2 389.2L468.65 383.65H466.9L471.4 390.5V395.35H473V390.5Z" fill="white"/>
<g id="&#231;&#188;&#150;&#231;&#187;&#132;_5">
<g id="logo">
<g id="Logo/Default">
<path id="Combined Shape" fill-rule="evenodd" clip-rule="evenodd" d="M121.368 66H125.728L127.059 69.3692H144.099V73.0386V77.3419H140.471V73.0386H110.453V77.3419H106.825V69.4026H107.058V69.3692H122.7L121.368 66ZM83.5704 66.3781H79.2086L80.5404 69.7176H70.7513V67.5354L58.3318 69.5523V72.8917L63.5594 72.0651V77.4876H58.3318V80.827H62.7935L57 99.2105H60.3962L63.5594 89.2913V103.806H67.1886V80.827H70.7513V77.4876H67.1886V71.47L70.7513 70.8748V73.3546H96.5559V69.7176H84.9022L83.5704 66.3781ZM127.03 99.3924V91.2564H139.891V87.6661H127.03V82.0664H139.891V78.4761H111.49V82.0664H123.38V98.3054C117.284 95.9338 114.672 91.8164 114.337 91.2564C114.772 88.8519 114.873 86.9085 114.906 85.9203H111.49C111.457 86.9085 111.323 88.9178 110.854 91.3223C110.452 93.2657 109.882 95.0444 109.213 96.6584C108.375 98.6019 107.304 100.249 106.064 101.566L108.844 103.773C110.217 102.192 111.39 100.315 112.327 98.1736C112.662 97.449 112.93 96.6584 113.198 95.8679C115.476 98.3054 119.595 101.533 126.159 102.917C130.178 103.773 137.178 103.806 142.604 103.806H143.609H144.479V100.216H143.609L143.206 100.213L142.733 100.211C137.677 100.18 130.667 100.139 127.03 99.3924ZM205.724 82.9067V79.2322H197.347V82.9067H202.038V98.9079V100.344V103.05L211.42 98.1729V94.0307L205.724 97.0038V82.9067ZM226.138 79.4929H236.903V83.1267H226.138V103.806H222.185V83.1267H211.42V79.4929H222.185V66.3781H226.138V79.4929ZM209.138 75.8296L205.705 67.5122H201.151L204.583 75.8296H209.138ZM160.487 82.6347V82.9016V97.0122L166.159 94.0433V98.1798L156.817 103.05V100.482V98.9137V82.9016H150.945V79.2322H160.487V82.6347ZM185.952 67.1343H182.306H173.978H171.168H170.298C170.198 72.4078 168.492 76.9232 166.92 79.9884H171.101C172.64 76.4617 173.376 73.0669 173.71 70.4961H182.306V76.4288V79.0985V79.9884H190.501V76.4288H185.952V67.1343ZM185.931 91.563C188.941 87.3045 189.777 83.5784 189.878 83.0128H187.068H169.842H167.835L167.843 83.0484C168.001 83.7199 168.863 87.3853 171.882 91.563C173.087 93.2265 174.458 94.7236 175.997 96.121C173.454 97.7512 170.544 99.0487 167.3 100.013V103.806C171.715 102.609 175.629 100.845 178.974 98.4831C182.352 100.845 186.366 102.642 190.881 103.806V100.013C187.536 99.0487 184.559 97.7512 181.917 96.0877C183.422 94.6904 184.76 93.1932 185.931 91.563ZM174.726 89.3673C173.99 88.3692 173.421 87.4044 172.953 86.5394H184.827C184.392 87.4044 183.824 88.3692 183.121 89.3673C181.951 91.0308 180.546 92.5279 178.974 93.8919C177.368 92.5279 175.93 91.0308 174.726 89.3673ZM163.877 75.8296L160.445 67.5122H155.89L159.323 75.8296H163.877ZM90.3156 79.819V83.6954H92.9186H96.5562V87.3399V103.806H92.9186V87.3399H90.3156V96.0203V99.6317H76.8999V99.2341V87.3068H74.3303V103.773H70.6927V87.3068V83.6954H74.3303H76.8999V79.819V76.2077H80.3706H86.8449H90.3156V79.819ZM86.8447 79.8191H80.3705V83.6955H86.8447V79.8191ZM86.8447 95.9872H80.3705V87.3067H86.8447V95.9872Z" fill="white"/>
</g>
</g>
<g id="&#231;&#188;&#150;&#231;&#187;&#132;_6">
<path id="&#232;&#183;&#175;&#229;&#190;&#132;_33" d="M292.15 89H301.55V85.2H292.15V78.1H288.2V85.2H279.3V89H288.2V99H277.8V102.8H303.35V99H292.15V89Z" fill="white"/>
<path id="&#232;&#183;&#175;&#229;&#190;&#132;_34" d="M285.65 66.45L281.7 66C281.15 67.9 280.5 69.8 279.7 71.6H268.1V75.4H277.85C275.1 80.35 271.35 84.85 266.65 88.75L269.1 91.9C270.4 90.75 271.7 89.65 272.95 88.35V104.05H276.8V84.1C278.95 81.4 280.75 78.5 282.35 75.4H304V71.6H284.05C284.55 69.85 285.1 68.15 285.65 66.45Z" fill="white"/>
<path id="&#232;&#183;&#175;&#229;&#190;&#132;_35" d="M316.7 82.7C314.8 85.95 313.3 88.3 312.05 89.7C311.55 90.15 311 90.5 310.3 90.75L311.35 94.3C315.25 93.8 319.4 92.8 323.8 91.35V87.9C321.1 88.8 318.5 89.55 315.95 90.1C318.2 87.15 321 82.55 324.3 76.2L320.85 74.9C320.1 76.45 319.35 77.9 318.6 79.3C317.15 79.5 315.7 79.7 314.25 79.8C316.2 76.8 318.15 72.75 320.1 67.85L316.4 66.4C314.95 70.85 313.25 74.95 311.3 78.7C310.8 79.4 310.3 79.9 309.75 80.15L310.7 83.7C312.8 83.25 314.75 82.95 316.7 82.7Z" fill="white"/>
<path id="&#232;&#183;&#175;&#229;&#190;&#132;_36" d="M343.5 71.25C342.45 69.95 340.9 68.3 338.95 66.45L336 68.35C337.9 70.2 339.4 71.9 340.45 73.4L343.5 71.25Z" fill="white"/>
<path id="&#232;&#183;&#175;&#229;&#190;&#132;_37" d="M324.25 95.5C320.3 96.95 315.55 98.15 310.15 99.05L310.65 102.85C315.75 101.9 320.3 100.7 324.25 99.15V95.5Z" fill="white"/>
<path id="&#232;&#183;&#175;&#229;&#190;&#132;_38" d="M341.6 99.5C340.6 99.5 339.5 98.5 338.35 96.65C340.7 94.5 342.9 92 344.9 89.05L341.9 86.95C340.4 89.2 338.7 91.3 336.8 93.05C336.3 91.55 335.8 89.85 335.5 87.95L335.3 86.75L345.8 85.1L345.25 81.45L334.85 83.1C334.65 81.65 334.6 80.15 334.55 78.5L344.75 77.05L344.25 73.45L334.55 74.75V66.5H330.65V75.25L324.75 76.15L325.3 79.75L330.7 79C330.75 80.65 330.9 82.15 331 83.65L324 84.7L324.5 88.35L331.5 87.3C331.7 88.2 331.8 89.05 332 89.95C332.5 91.95 333.05 93.85 333.75 95.55C330.9 97.7 327.65 99.25 324 100.45L326.25 103.55C329.5 102.55 332.6 101.05 335.5 98.9C335.7 99.2 335.95 99.6 336.25 99.95C338.1 102.4 340.05 103.65 342.05 103.65C344.3 103.65 346 101 347.3 95.8L344.05 93.6C343.3 97.55 342.55 99.5 341.6 99.5Z" fill="white"/>
<path id="&#229;&#189;&#162;&#231;&#138;&#182;_11" fill-rule="evenodd" clip-rule="evenodd" d="M356.3 68.55H368.8C376.05 68.55 379.65 71.85 379.6 78.5C379.6 85.15 375.95 88.5 368.75 88.5H360.9V101.25H356.3V68.55ZM368.5 84.3C370.75 84.3 372.45 83.85 373.5 82.9C374.45 81.95 375.05 80.5 375.1 78.55C375.1 76.5 374.5 75.05 373.45 74.25C372.4 73.3 370.75 72.85 368.5 72.85H361V84.3H368.5Z" fill="white"/>
<path id="&#232;&#183;&#175;&#229;&#190;&#132;_39" d="M403.25 85.45C402.1 84.7 399.4 83.6 395.35 82.25C392.5 81.3 390.75 80.7 390.1 80.25C388.6 79.35 387.85 78.25 387.85 76.8C387.85 75.15 388.5 73.95 389.75 73.2C390.8 72.55 392.3 72.25 394.35 72.25C396.6 72.25 398.3 72.7 399.5 73.7C400.65 74.65 401.4 76.15 401.9 78.3H406.5C406.2 74.7 405.05 72.15 402.9 70.45C400.9 68.8 398.2 68 394.65 68C391.45 68 388.8 68.75 386.7 70.35C384.45 72 383.4 74.25 383.4 77.15C383.4 80 384.55 82.2 386.9 83.7C387.85 84.25 390.1 85.15 393.8 86.4C397.1 87.45 399.15 88.25 399.8 88.6C401.7 89.65 402.65 91.05 402.65 92.9C402.65 94.35 401.95 95.5 400.6 96.35C399.25 97.15 397.4 97.6 395.15 97.6C392.6 97.6 390.75 97.1 389.5 96.1C388.15 95.05 387.3 93.15 386.95 90.55H382.35C382.6 94.65 384 97.65 386.5 99.6C388.6 101.15 391.45 102 395.1 102C398.9 102 401.85 101.2 404 99.55C406.1 97.85 407.2 95.6 407.2 92.6C407.15 89.5 405.8 87.1 403.25 85.45Z" fill="white"/>
<rect id="&#231;&#159;&#169;&#229;&#189;&#162;" x="251" y="70.7" width="1.3" height="34.1" fill="#3F4957"/>
</g>
</g>
<g id="&#231;&#188;&#150;&#231;&#187;&#132;_7">
<path id="&#229;&#189;&#162;&#231;&#138;&#182;_12" fill-rule="evenodd" clip-rule="evenodd" d="M70.7 120.75H63V119.85H66.35C66.2289 119.527 66.0752 119.171 65.9415 118.862C65.9096 118.789 65.8789 118.717 65.85 118.65L66.75 118.4C67 118.85 67.25 119.4 67.4 119.85H70.7V120.75ZM61.45 123.6C61.8 123.95 62.8 125.05 63.05 125.35L62.45 126.15C62.25 125.8 61.85 125.15 61.45 124.6V130.8H60.5V124.95C60 126.25 59.4 127.55 58.8 128.35C58.7 128.05 58.45 127.65 58.25 127.4C59.05 126.45 59.85 124.7 60.35 123.2H58.6V122.25H60.5V120.05C59.95 120.15 59.4 120.25 58.85 120.3C58.8 120.05 58.7 119.75 58.55 119.5C59.9 119.3 61.45 118.95 62.35 118.55L62.95 119.35C62.5 119.55 61.95 119.7 61.4 119.85V122.25H63.15V123.2H61.4V123.6H61.45ZM70.1 130.7C70.4 130.55 70.5 130.35 70.5 129.9V124.95H63.2V130.8H64.1V125.8H69.6V129.85C69.6 130 69.55 130.05 69.4 130.05H68.35C68.45 130.3 68.55 130.6 68.6 130.85C69.35 130.85 69.8 130.85 70.1 130.7ZM69.65 124.2H64V121.5H69.65V124.2ZM64.85 122.25H68.7V123.5H64.85V122.25ZM68.65 129.35H65V126.6H68.7V129.35H68.65ZM65.8 127.35H67.9V128.6H65.8V127.35Z" fill="#8A95AE"/>
<path id="&#229;&#189;&#162;&#231;&#138;&#182;_13" fill-rule="evenodd" clip-rule="evenodd" d="M73.0002 122.95H74.0002V120.9H83.2002V122.9H84.2002V119.95H79.4002C79.2502 119.5 78.9002 118.85 78.6002 118.35L77.6502 118.65C77.8502 119.05 78.1002 119.6 78.2502 120H73.0002V122.95ZM81.3502 129.65C80.5502 129.65 79.8502 129.6 79.1502 129.45H79.2502V126.7H83.2502V125.75H79.2502V123.55H82.7002V122.6H74.8502V123.55H78.2002V129.15C77.1002 128.7 76.2002 127.95 75.7002 126.5C75.8002 125.95 75.9002 125.35 76.0002 124.75L75.0002 124.65C74.7002 127.1 73.9502 129 72.4502 130.15C72.7002 130.3 73.1002 130.65 73.2502 130.85C74.1502 130.1 74.8002 129.05 75.2502 127.8C76.4502 130.1 78.5002 130.6 81.3002 130.6H84.4002C84.5002 130.3 84.6502 129.85 84.8002 129.6C84.1502 129.65 81.8502 129.65 81.3502 129.65Z" fill="#8A95AE"/>
<path id="&#229;&#189;&#162;&#231;&#138;&#182;_14" fill-rule="evenodd" clip-rule="evenodd" d="M89.6 121.45C89.15 120.9 88.25 120 87.55 119.35L88.2 118.75C88.95 119.35 89.85 120.2 90.3 120.75L89.6 121.45ZM90.9278 127.597L90.9279 127.598C91.018 127.828 91.1236 128.097 91.2 128.25C88.8 130 88.45 130.3 88.25 130.55C88.15 130.3 87.9 129.9 87.7 129.7C87.95 129.55 88.4 129.1 88.4 128.5V123.65H86.5V122.7H89.35V128.5L90.85 127.4C90.8736 127.459 90.9 127.526 90.9278 127.597ZM91.1 124.1C93 123.15 93.45 121.7 93.45 120.45H93.5V119.85H95.9V122C95.9 123 96.1 123.4 97 123.4H98C98.25 123.4 98.5 123.4 98.7 123.35C98.65 123.15 98.6 122.75 98.6 122.5C98.5 122.5 98.3875 122.513 98.275 122.525C98.1625 122.538 98.05 122.55 97.95 122.55H97C96.8 122.55 96.75 122.45 96.75 122.05V118.9H92.5V120.4C92.5 121.4 92.2 122.55 90.45 123.35C90.65 123.5 91 123.9 91.1 124.1ZM98 124.65C97.45 126.35 96.55 127.65 95.4 128.6C96.35 129.25 97.55 129.7 98.85 130C98.6 130.2 98.35 130.6 98.25 130.9C96.85 130.55 95.65 130 94.6 129.25C93.5 130 92.25 130.5 91 130.85C90.9 130.6 90.7 130.2 90.5 129.95C91.7 129.7 92.85 129.25 93.85 128.6C92.9 127.7 92.15 126.65 91.6 125.4L91.8 125.35H91.1V124.4H97.25L97.45 124.35L98 124.65ZM94.65 128.05C93.75 127.3 93.05 126.4 92.55 125.35H96.75C96.25 126.45 95.55 127.35 94.65 128.05Z" fill="#8A95AE"/>
<path id="&#229;&#189;&#162;&#231;&#138;&#182;_15" fill-rule="evenodd" clip-rule="evenodd" d="M109.4 123.95H112.8V122.9H109.4V118.5H108.35V122.95H104.9V123.95H108.35V130.8H109.4V123.95ZM103.9 121.45C103.45 120.85 102.5 119.95 101.8 119.35L102.45 118.7C103.2 119.3 104.15 120.15 104.6 120.7L103.9 121.45ZM105.35 127.35C105.378 127.493 105.456 127.7 105.526 127.889L105.526 127.889C105.579 128.032 105.628 128.164 105.65 128.25C103.15 130.05 102.75 130.35 102.55 130.6C102.45 130.35 102.2 129.9 102 129.7C102.25 129.5 102.65 129.15 102.65 128.6V123.75H100.55V122.75H103.7V128.5L105.35 127.35Z" fill="#8A95AE"/>
<path id="&#229;&#189;&#162;&#231;&#138;&#182;_16" fill-rule="evenodd" clip-rule="evenodd" d="M125.85 124.2C125.9 124.05 125.9 123.7 125.9 123.7V123.65H117.45C117.574 123.215 117.679 122.723 117.789 122.208C117.856 121.894 117.924 121.572 118 121.25H125.65V120.3H118.15C118.25 119.8 118.35 119.3 118.45 118.85L117.45 118.75C117.1 120.6 116.55 123.15 116.15 124.65H117H124.8C124.5 127.75 124.15 129.15 123.65 129.55C123.5 129.7 123.3 129.7 122.95 129.7H122.95C122.55 129.7 121.5 129.7 120.45 129.6C120.65 129.9 120.8 130.3 120.85 130.6C121.8 130.65 122.75 130.7 123.25 130.65C123.8 130.65 124.15 130.55 124.5 130.2C125.1 129.6 125.45 128.05 125.85 124.2ZM114.75 127.55H123.1V126.6H114.75V127.55Z" fill="#8A95AE"/>
<path id="&#229;&#189;&#162;&#231;&#138;&#182;_17" fill-rule="evenodd" clip-rule="evenodd" d="M132.1 119.9H129.25V129.8H130.5V125.85H132.15C134.3 125.85 135.8 124.9 135.8 122.8C135.8 120.65 134.35 119.9 132.1 119.9ZM134.55 122.8C134.55 124.2 133.75 124.85 132 124.85H130.5V120.9H131.95C133.65 120.9 134.55 121.35 134.55 122.8Z" fill="#8A95AE"/>
<path id="&#232;&#183;&#175;&#229;&#190;&#132;_40" d="M138.2 119H139.45V121.95L139.4 123.45C140.1 122.75 140.85 122.2 141.85 122.2C143.4 122.2 144.1 123.2 144.1 125.1V129.75H142.85V125.25C142.85 123.85 142.45 123.3 141.45 123.3C140.7 123.3 140.2 123.7 139.45 124.4V129.75H138.2V119H138.2Z" fill="#8A95AE"/>
<path id="&#229;&#189;&#162;&#231;&#138;&#182;_18" fill-rule="evenodd" clip-rule="evenodd" d="M149.75 122.25C147.95 122.25 146.35 123.65 146.35 126.1C146.35 128.55 147.95 129.95 149.75 129.95C151.55 129.95 153.15 128.55 153.15 126.1C153.15 123.65 151.55 122.25 149.75 122.25ZM149.75 123.25C151.05 123.25 151.9 124.4 151.9 126.1C151.9 127.8 151 128.9 149.75 128.9C148.5 128.9 147.65 127.8 147.65 126.1C147.65 124.4 148.45 123.25 149.75 123.25Z" fill="#8A95AE"/>
<path id="&#232;&#183;&#175;&#229;&#190;&#132;_41" d="M155.55 127.5V123.45H154.45V122.5L155.6 122.45L155.75 120.4H156.8V122.45H158.8V123.45H156.8V127.55C156.8 128.45 157.1 128.95 157.95 128.95C158.2 128.95 158.55 128.85 158.8 128.75L159.05 129.65C158.65 129.8 158.15 129.9 157.7 129.9C156.05 129.95 155.55 129 155.55 127.5Z" fill="#8A95AE"/>
<path id="&#229;&#189;&#162;&#231;&#138;&#182;_19" fill-rule="evenodd" clip-rule="evenodd" d="M163.55 122.25C161.75 122.25 160.15 123.65 160.15 126.1C160.15 128.55 161.75 129.95 163.55 129.95C165.35 129.95 166.95 128.55 166.95 126.1C166.95 123.65 165.35 122.25 163.55 122.25ZM163.55 123.25C164.85 123.25 165.7 124.4 165.7 126.1C165.7 127.8 164.8 128.9 163.55 128.9C162.3 128.9 161.45 127.8 161.45 126.1C161.45 124.4 162.25 123.25 163.55 123.25Z" fill="#8A95AE"/>
<path id="&#229;&#189;&#162;&#231;&#138;&#182;_20" fill-rule="evenodd" clip-rule="evenodd" d="M170.4 122.45H169.4H169.35V132.9H170.6V130.4L170.55 129.1C171.25 129.65 171.95 129.95 172.6 129.95C174.3 129.95 175.8 128.5 175.8 126C175.8 123.75 174.8 122.25 172.9 122.25C172.05 122.25 171.2 122.75 170.55 123.3H170.5L170.4 122.45ZM172.55 123.3C173.95 123.3 174.5 124.4 174.5 126C174.5 127.85 173.65 128.95 172.4 128.9C171.9 128.9 171.25 128.7 170.6 128.15V124.3C171.3 123.65 171.95 123.3 172.55 123.3Z" fill="#8A95AE"/>
<path id="&#229;&#189;&#162;&#231;&#138;&#182;_21" fill-rule="evenodd" clip-rule="evenodd" d="M181 122.25C179.3 122.25 177.7 123.7 177.7 126.1C177.7 128.55 179.25 129.95 181.2 129.9C182.2 129.9 183 129.55 183.65 129.15L183.2 128.35C182.65 128.75 182.05 128.95 181.35 128.95C179.95 128.95 179 127.95 178.9 126.4H183.85C183.85 126.335 183.86 126.24 183.87 126.134C183.884 125.998 183.9 125.841 183.9 125.7C183.9 123.6 182.85 122.25 181 122.25ZM181 123.25C182.15 123.25 182.85 124.05 182.85 125.55H178.9C179.05 124.1 179.95 123.25 181 123.25Z" fill="#8A95AE"/>
<path id="&#229;&#189;&#162;&#231;&#138;&#182;_22" fill-rule="evenodd" clip-rule="evenodd" d="M190.05 125.15C186.95 125.5 185.55 126.3 185.55 127.9C185.55 129.2 186.5 129.95 187.7 129.95C188.6 129.95 189.45 129.5 190.15 128.9H190.2L190.3 129.8H191.3V125.3C191.3 123.5 190.55 122.3 188.75 122.3C187.55 122.3 186.55 122.8 185.85 123.25L186.35 124.1C186.95 123.7 187.7 123.3 188.55 123.3C189.75 123.3 190.05 124.2 190.05 125.15ZM190.05 125.95V128C189.35 128.65 188.8 129 188.05 129C187.3 129 186.75 128.65 186.75 127.8C186.75 126.85 187.55 126.25 190.05 125.95Z" fill="#8A95AE"/>
<path id="&#229;&#189;&#162;&#231;&#138;&#182;_23" fill-rule="evenodd" clip-rule="evenodd" d="M199.45 119.1C199.95 119.75 200.5 120.6 200.75 121.2L201.6 120.75C201.35 120.15 200.8 119.3 200.25 118.7L199.45 119.1ZM205.9 129.95C204.214 129.206 203.02 127.577 202.415 125.6H205.75V124.7H202.45C202.5 124.4 202.5 124.1 202.5 123.85V122.25H205.25V121.3H203.4C203.795 120.73 204.227 120.007 204.631 119.332L204.8 119.05L203.8 118.75C203.45 119.5 202.85 120.6 202.35 121.3H199V122.25H201.5V123.85C201.5 124.15 201.5 124.4 201.45 124.7H198.7V125.6H201.4C201.15 127.1 200.45 128.85 198.25 130.25C198.5 130.4 198.85 130.7 199 130.95C200.7 129.75 201.6 128.4 202.05 127.05C202.75 128.75 203.8 130.05 205.25 130.8C205.4 130.5 205.65 130.15 205.9 129.95ZM198.05 130.85V128.15L199.1 128L199.05 127.15L198 127.3V120H198.6V119.1H193.55V120H194.3V127.85C194.156 127.874 194.013 127.886 193.874 127.898C193.724 127.911 193.58 127.924 193.45 127.95L193.65 128.9L197.15 128.3V130.85H198.05ZM195.2 121.85V119.95H197.15V121.85H195.2ZM195.2 124.65H197.15V122.7H195.2V124.65ZM197.15 127.4C196.45 127.5 195.8 127.6 195.2 127.7V125.5H197.15V127.4Z" fill="#8A95AE"/>
<path id="&#229;&#189;&#162;&#231;&#138;&#182;_24" fill-rule="evenodd" clip-rule="evenodd" d="M214.3 119.45L214.75 118.85L213.8 118.35C212.45 120.45 209.95 122.25 207.4 123.25C207.618 123.432 207.81 123.693 207.975 123.918C208.037 124.002 208.096 124.082 208.15 124.15C208.722 123.905 209.26 123.593 209.82 123.269C209.945 123.197 210.072 123.123 210.2 123.05V123.75H217V122.85C217.501 123.172 218.028 123.443 218.561 123.717C218.774 123.826 218.987 123.936 219.2 124.05C219.35 123.75 219.65 123.35 219.9 123.15C217.75 122.25 215.9 121.15 214.3 119.45ZM217 122.85H217.05C215.85 122.1 214.8 121.25 213.75 120.2C212.85 121.2 211.8 122.1 210.65 122.85H217ZM217.95 125.4H209.6V130.8H210.6V130.05H216.9V130.75H217.95V125.4ZM210.6 126.3V129.1H216.9V126.3H210.6Z" fill="#8A95AE"/>
<path id="&#229;&#189;&#162;&#231;&#138;&#182;_25" fill-rule="evenodd" clip-rule="evenodd" d="M225.6 125.3C225.35 125.4 225.1 125.475 224.85 125.55C224.6 125.625 224.35 125.7 224.1 125.8V129.6C224.1 130.15 224 130.4 223.65 130.55C223.35 130.7 222.8 130.75 221.95 130.75C221.9 130.5 221.8 130.1 221.65 129.8H222.9C223.1 129.8 223.15 129.75 223.15 129.55V126.05C222.809 126.174 222.468 126.279 222.152 126.376L222.151 126.376L222.151 126.376L222.151 126.376L222.151 126.376C221.957 126.436 221.771 126.493 221.6 126.55L221.35 125.6C221.85 125.5 222.45 125.3 223.15 125.05V122.1H221.5V121.15H223.15V118.5H224.1V121.2H225.6V122.15H224.1V124.8L225.45 124.4L225.6 125.3ZM230.1 129.65C230.5 129.7 230.95 129.75 231.35 129.75H233.95C233.8 129.95 233.7 130.4 233.65 130.65H231.3C229.35 130.65 227.95 130.3 227.05 128.4C226.65 129.4 226.15 130.25 225.45 130.9C225.3 130.75 224.9 130.45 224.7 130.3C225.9 129.35 226.5 127.85 226.7 125.85L227.65 125.95C227.6 126.45 227.5 126.95 227.4 127.4C227.8 128.55 228.4 129.15 229.15 129.5V125.25H225.85V124.4H233.55V125.25H230.1V126.85H232.9V127.7H230.1V129.65ZM226.45 123.3H232.8V118.9H226.45V123.3ZM231.85 119.7H227.4V120.75H231.85V119.7ZM227.4 121.45H231.85V122.55H227.4V121.45Z" fill="#8A95AE"/>
<path id="&#229;&#189;&#162;&#231;&#138;&#182;_26" fill-rule="evenodd" clip-rule="evenodd" d="M239.55 118.8C239.15 119.75 238.7 120.75 238.15 121.7V130.8H237.15V123.2C236.763 123.78 236.283 124.313 235.845 124.8L235.8 124.85C235.7 124.6 235.4 124.1 235.25 123.85C236.6 122.55 237.8 120.55 238.6 118.5L239.55 118.8ZM242.45 127.65C241.75 128.85 240.75 130 239.85 130.75C239.65 130.55 239.3 130.25 239.05 130.15C239.95 129.45 240.9 128.4 241.45 127.35L242.45 127.65ZM247.85 126.6V125.6H245.7V122.3H247.6V121.35H245.7V118.6H244.75V121.35H242.1V118.65H241.15V121.35H239.4V122.3H241.15V125.6H239.1V126.6H247.85ZM242.15 125.6H244.8V122.3H242.15V125.6ZM247.7 130.3C247.25 129.5 246.25 128.3 245.3 127.4L244.5 127.85C245.4 128.75 246.4 130 246.85 130.85L247.7 130.3Z" fill="#8A95AE"/>
</g>
</g>
<defs>
<radialGradient id="paint0_radial" cx="0" cy="0" r="1" gradientUnits="userSpaceOnUse" gradientTransform="translate(282.956 354.905) scale(29.425 24.0893)">
<stop stop-color="#857C63"/>
<stop offset="1" stop-color="#221F19"/>
</radialGradient>
<linearGradient id="paint1_linear" x1="292.266" y1="360.517" x2="288.509" y2="367.255" gradientUnits="userSpaceOnUse">
<stop/>
<stop offset="1" stop-opacity="0.01"/>
</linearGradient>
<linearGradient id="paint2_linear" x1="265.757" y1="357.667" x2="282.705" y2="391.647" gradientUnits="userSpaceOnUse">
<stop stop-color="white"/>
<stop offset="1" stop-color="white" stop-opacity="0.01"/>
</linearGradient>
<radialGradient id="paint3_radial" cx="0" cy="0" r="1" gradientUnits="userSpaceOnUse" gradientTransform="translate(279.882 350.93) scale(6.2598 6.29646)">
<stop stop-color="white"/>
<stop offset="1" stop-color="#B9B9B0"/>
</radialGradient>
<radialGradient id="paint4_radial" cx="0" cy="0" r="1" gradientUnits="userSpaceOnUse" gradientTransform="translate(270.205 355.995) scale(4.695 5.23572)">
<stop stop-color="#5B676B"/>
<stop offset="1" stop-color="#141718"/>
</radialGradient>
<linearGradient id="paint5_linear" x1="269.301" y1="358.057" x2="271.928" y2="361.068" gradientUnits="userSpaceOnUse">
<stop stop-color="white"/>
<stop offset="1" stop-color="#242424"/>
</linearGradient>
<radialGradient id="paint6_radial" cx="0" cy="0" r="1" gradientUnits="userSpaceOnUse" gradientTransform="translate(288.74 350.87) scale(7.35555 7.39205)">
<stop stop-color="white"/>
<stop offset="1" stop-color="#B9B9B0"/>
</radialGradient>
<linearGradient id="paint7_linear" x1="295.674" y1="363.655" x2="294.893" y2="368.696" gradientUnits="userSpaceOnUse">
<stop stop-color="#6E3D09"/>
<stop offset="0.24" stop-color="#EA8113"/>
<stop offset="0.62" stop-color="#5C3307"/>
<stop offset="1" stop-color="#E07C12"/>
</linearGradient>
<linearGradient id="paint8_linear" x1="307.339" y1="370.539" x2="307.888" y2="368.483" gradientUnits="userSpaceOnUse">
<stop stop-color="#BDBDBD"/>
<stop offset="0.33" stop-color="#E2E2E2"/>
<stop offset="0.67" stop-color="#A3A3A3"/>
<stop offset="1" stop-color="#DDDDDD"/>
</linearGradient>
<radialGradient id="paint9_radial" cx="0" cy="0" r="1" gradientUnits="userSpaceOnUse" gradientTransform="translate(308.841 371.525) scale(5.105 5.35163)">
<stop stop-color="#696969"/>
<stop offset="1"/>
</radialGradient>
<linearGradient id="paint10_linear" x1="311.13" y1="371.835" x2="313.019" y2="372.698" gradientUnits="userSpaceOnUse">
<stop stop-color="white"/>
<stop offset="1" stop-color="white" stop-opacity="0.01"/>
</linearGradient>
<linearGradient id="paint11_linear" x1="292.61" y1="362.682" x2="291.095" y2="363.767" gradientUnits="userSpaceOnUse">
<stop/>
<stop offset="1" stop-opacity="0.01"/>
</linearGradient>
</defs>
</svg>
