<?xml version="1.0" standalone="no"?>
<!DOCTYPE svg PUBLIC "-//W3C//DTD SVG 1.1//EN" "http://www.w3.org/Graphics/SVG/1.1/DTD/svg11.dtd" >
<!--
2013-9-30: Created.
-->
<svg>
<metadata>
Created by iconfont
</metadata>
<defs>

<font id="iconfont" horiz-adv-x="1024" >
  <font-face
    font-family="iconfont"
    font-weight="500"
    font-stretch="normal"
    units-per-em="1024"
    ascent="896"
    descent="-128"
  />
    <missing-glyph />
    
    <glyph glyph-name="weibiaoti-" unicode="&#58881;" d="M746.8032 193.092267l-209.237333 172.782933 208.827733 186.914133 17.339733-19.387733-186.299733-166.741333 185.924267-153.531734zM575.146667 386.116267h635.392v-26.0096H575.146667zM924.023467-47.581867H190.976c-32.324267 0-56.695467 16.145067-56.695467 37.512534V756.258133c0 21.4016 24.3712 37.512533 56.695467 37.512534h733.047467c32.324267 0 56.695467-16.145067 56.695466-37.512534v-211.797333h-26.0096V756.258133c0 2.9696-10.5472 11.537067-30.685866 11.537067H190.976c-20.138667 0-30.685867-8.567467-30.685867-11.537067v-766.293333c0-2.9696 10.5472-11.537067 30.685867-11.537067h733.047467c20.138667 0 30.685867 8.567467 30.685866 11.537067v210.807467h26.0096v-210.807467c0-21.4016-24.3712-37.546667-56.695466-37.546667z"  horiz-adv-x="1262" />

    
    <glyph glyph-name="tubiao-" unicode="&#58882;" d="M1137.527467-23.278933000000052H103.8336V802.133333h1033.693867v-825.412266zM126.976-0.1365329999999858h987.409067V778.990933H126.976v-779.127466z"  horiz-adv-x="1262" />

    
    <glyph glyph-name="tubiao-1" unicode="&#58883;" d="M38.4 692.292267h1184.699733v-27.648H38.4zM38.4 397.277867h1184.699733v-27.648H38.4zM38.4 102.26346699999999h1184.699733v-27.648H38.4z"  horiz-adv-x="1262" />

    
    <glyph glyph-name="tubiao-2" unicode="&#58884;" d="M892.1088 863.1296h27.306667v-958.2592h-27.306667zM600.7808 863.1296h27.306667v-958.2592h-27.306667zM309.418667 863.1296h27.306666v-958.2592h-27.306666z"  horiz-adv-x="1262" />

    
    <glyph glyph-name="tubiao-3" unicode="&#58885;" d="M798.446933 91.3408h276.548267v-20.923733h-276.548267zM926.242133 219.136h20.923734v-276.548267h-20.923734zM647.2704 355.874133c-130.082133 0-235.9296 105.847467-235.9296 235.9296S517.154133 827.733333 647.2704 827.733333c130.082133 0 235.9296-105.847467 235.9296-235.9296s-105.847467-235.9296-235.9296-235.9296z m0 450.935467c-118.545067 0-215.005867-96.4608-215.005867-215.005867s96.4608-215.005867 215.005867-215.005866c118.545067 0 215.005867 96.4608 215.005867 215.005866s-96.4608 215.005867-215.005867 215.005867zM240.162133-57.412267h-20.923733c0 235.997867 192 428.032 428.032 428.032 94.549333 0 184.149333-30.208 259.1744-87.3472l-12.6976-16.657066a403.456 403.456 0 0 1-246.4768 83.080533c-224.494933-0.034133-407.108267-182.647467-407.108267-407.108267z"  horiz-adv-x="1262" />

    
    <glyph glyph-name="tubiao-4" unicode="&#58886;" d="M624.366933 827.0848H1143.466667v-25.9072H624.366933zM624.366933 657.1007999999999H1143.466667v-25.9072H624.366933zM624.366933 487.1168H1143.466667v-25.9072H624.366933zM105.233067 317.1328H1143.466667v-25.9072H105.233067zM105.233067 147.14880000000005H1143.466667v-25.9072H105.233067zM105.233067-22.835199999999986H1143.466667v-25.9072H105.233067zM131.447467 467.8656l-22.6304 12.5952L309.6576 841.284267l190.8736-361.0624-22.869333-12.117334-168.584534 318.8736zM202.001067 634.5727999999999h208.930133v-25.9072H202.001067z"  horiz-adv-x="1262" />

    
    <glyph glyph-name="tubiao-5" unicode="&#58887;" d="M453.051733-92.15999999999997a21.367467 21.367467 0 0 0-15.36 6.5536 20.923733 20.923733 0 0 0-5.8368 15.4624l7.509334 192.6144c-141.243733 69.802667-228.625067 201.3184-228.625067 344.9856C210.7392 685.124267 410.487467 862.242133 656.008533 862.242133s445.269333-177.083733 445.269334-394.786133c0-216.3712-197.358933-392.669867-440.866134-394.752l-193.9456-159.982933a20.753067 20.753067 0 0 0-13.4144-4.881067z m202.9568 929.928533c-232.0384 0-420.795733-166.126933-420.795733-370.312533 0-136.6016 85.026133-261.666133 221.934933-326.417067l7.304534-3.447466-7.850667-201.3184 195.003733 160.8704h4.4032c232.0384 0 420.795733 166.126933 420.795734 370.312533S888.046933 837.768533 656.008533 837.768533zM411.579733 389.12a49.937067 49.937067 0 0 0-49.8688 49.8688c0 27.511467 22.391467 49.8688 49.8688 49.8688 27.511467 0 49.8688-22.391467 49.8688-49.8688s-22.357333-49.8688-49.8688-49.8688z m0 75.264a25.429333 25.429333 0 0 1 0-50.7904 25.429333 25.429333 0 0 1 0 50.7904zM656.008533 389.12a49.937067 49.937067 0 0 0-49.8688 49.8688c0 27.511467 22.391467 49.8688 49.8688 49.8688 27.511467 0 49.8688-22.391467 49.8688-49.8688s-22.357333-49.8688-49.8688-49.8688z m0 75.264a25.429333 25.429333 0 0 1 0-50.7904 25.429333 25.429333 0 0 1 0 50.7904zM900.437333 389.12a49.937067 49.937067 0 0 0-49.8688 49.8688c0 27.511467 22.391467 49.8688 49.8688 49.8688 27.511467 0 49.8688-22.391467 49.8688-49.8688s-22.391467-49.8688-49.8688-49.8688z m0 75.264a25.429333 25.429333 0 0 1 0-50.7904 25.429333 25.429333 0 0 1 0 50.7904z"  horiz-adv-x="1262" />

    
    <glyph glyph-name="tubiao-6" unicode="&#58888;" d="M347.7504-104.2432H194.389333a34.645333 34.645333 0 0 0-34.6112 34.6112v295.185067c0 19.080533 15.530667 34.6112 34.6112 34.6112h153.361067c19.080533 0 34.6112-15.530667 34.6112-34.6112v-295.185067c0-19.080533-15.530667-34.6112-34.6112-34.6112z m-153.361067 335.837867a6.0416 6.0416 0 0 1-6.0416-6.0416v-295.185067c0-3.345067 2.696533-6.0416 6.0416-6.0416h153.361067a6.0416 6.0416 0 0 1 6.0416 6.0416v295.185067a6.0416 6.0416 0 0 1-6.0416 6.0416H194.389333zM677.444267-104.2432h-153.361067a34.645333 34.645333 0 0 0-34.6112 34.6112V837.358933c0 19.080533 15.530667 34.6112 34.6112 34.6112h153.361067c19.080533 0 34.6112-15.530667 34.6112-34.6112V-69.63199999999995c0-19.080533-15.530667-34.6112-34.6112-34.6112zM524.0832 843.400533a6.0416 6.0416 0 0 1-6.0416-6.0416V-69.63199999999995c0-3.345067 2.696533-6.0416 6.0416-6.0416h153.361067a6.0416 6.0416 0 0 1 6.0416 6.0416V837.358933a6.0416 6.0416 0 0 1-6.0416 6.0416h-153.361067zM1007.138133-104.2432h-153.361066a34.645333 34.645333 0 0 0-34.6112 34.6112V506.4704c0 19.080533 15.530667 34.6112 34.6112 34.6112h153.361066c19.080533 0 34.6112-15.530667 34.6112-34.6112V-69.63199999999995c0-19.080533-15.530667-34.6112-34.6112-34.6112z m-153.361066 616.7552a6.0416 6.0416 0 0 1-6.0416-6.0416V-69.63199999999995c0-3.345067 2.696533-6.0416 6.0416-6.0416h153.361066a6.0416 6.0416 0 0 1 6.0416 6.0416V506.4704a6.0416 6.0416 0 0 1-6.0416 6.0416h-153.361066z"  horiz-adv-x="1262" />

    
    <glyph glyph-name="tubiao-7" unicode="&#58889;" d="M962.9696 150.05013299999996H509.713067L287.095467 757.998933H115.234133a11.400533 11.400533 0 1 0 0 22.801067h187.8016l222.651734-607.982933h437.282133a11.400533 11.400533 0 1 0 0-22.766934zM950.920533 338.432H448.7168a11.400533 11.400533 0 1 0 0 22.801067h488.891733l117.418667 207.735466c4.130133 7.304533 4.061867 16.008533-0.170667 23.278934s-11.776 11.605333-20.206933 11.605333H351.505067a11.400533 11.400533 0 1 0 0 22.801067h683.144533c16.622933 0 31.5392-8.567467 39.901867-22.9376 8.362667-14.336 8.4992-31.5392 0.3072-46.011734l-123.938134-219.272533zM582.621867-39.765333000000055c-27.136 0-49.2544 22.084267-49.2544 49.220266s22.084267 49.2544 49.2544 49.2544a49.2544 49.2544 0 0 0 0-98.474666z m0 75.639466a26.453333 26.453333 0 0 1 0-52.8384 26.453333 26.453333 0 0 1 0 52.8384zM883.575467-39.765333000000055c-27.136 0-49.220267 22.084267-49.220267 49.220266s22.084267 49.2544 49.220267 49.2544 49.2544-22.084267 49.2544-49.2544-22.084267-49.220267-49.2544-49.220266z m0 75.639466a26.453333 26.453333 0 0 1 0-52.8384 26.453333 26.453333 0 0 1 0 52.8384z"  horiz-adv-x="1262" />

    
    <glyph glyph-name="tubiao-8" unicode="&#58890;" d="M464.7936 415.095467H173.397333a34.065067 34.065067 0 0 0-34.030933 34.065066v382.293334c0 18.773333 15.2576 34.065067 34.030933 34.065066h291.396267c18.773333 0 34.030933-15.2576 34.030933-34.065066v-382.327467a34.030933 34.030933 0 0 0-34.030933-34.030933zM173.397333 837.393067a5.9392 5.9392 0 0 1-5.9392-5.9392v-382.327467c0-3.2768 2.6624-5.9392 5.9392-5.9392h291.396267a5.9392 5.9392 0 0 1 5.9392 5.9392V831.453867a5.9392 5.9392 0 0 1-5.9392 5.9392H173.397333zM1116.16 415.095467H592.896a34.065067 34.065067 0 0 0-34.030933 34.065066v382.293334c0 18.773333 15.2576 34.065067 34.030933 34.065066H1116.16c18.773333 0 34.030933-15.2576 34.030933-34.065066v-382.327467c0-18.773333-15.2576-34.030933-34.030933-34.030933zM592.896 837.393067a5.9392 5.9392 0 0 1-5.9392-5.9392v-382.327467c0-3.2768 2.6624-5.9392 5.9392-5.9392H1116.16a5.9392 5.9392 0 0 1 5.9392 5.9392V831.453867a5.9392 5.9392 0 0 1-5.9392 5.9392H592.896zM1116.16-97.79200000000003h-291.396267a34.065067 34.065067 0 0 0-34.030933 34.065067v382.293333c0 18.773333 15.2576 34.065067 34.030933 34.065067H1116.16c18.773333 0 34.030933-15.2576 34.030933-34.065067v-382.327467a34.065067 34.065067 0 0 0-34.030933-34.030933z m-291.396267 422.2976a5.9392 5.9392 0 0 1-5.9392-5.9392v-382.327467c0-3.2768 2.6624-5.9392 5.9392-5.9392H1116.16a5.9392 5.9392 0 0 1 5.9392 5.9392V318.56640000000004a5.9392 5.9392 0 0 1-5.9392 5.9392h-291.396267zM696.661333-97.79200000000003H173.397333a34.065067 34.065067 0 0 0-34.030933 34.065067v382.293333c0 18.773333 15.2576 34.065067 34.030933 34.065067h523.264c18.773333 0 34.030933-15.2576 34.030934-34.065067v-382.327467a34.065067 34.065067 0 0 0-34.030934-34.030933zM173.397333 324.50559999999996a5.9392 5.9392 0 0 1-5.9392-5.9392v-382.327467c0-3.2768 2.6624-5.9392 5.9392-5.9392h523.264a5.9392 5.9392 0 0 1 5.9392 5.9392V318.56640000000004a5.9392 5.9392 0 0 1-5.9392 5.9392H173.397333z"  horiz-adv-x="1262" />

    
    <glyph glyph-name="tubiao-9" unicode="&#58891;" d="M1039.291733-66.59413300000006H236.6464c-22.391467 0-39.3216 25.531733-39.3216 59.392V760.6272c0 33.860267 16.896 59.392 39.3216 59.392h221.866667v-27.2384h-221.866667c-3.106133 0-12.0832-11.0592-12.0832-32.1536v-767.829333c0-21.0944 8.977067-32.1536 12.0832-32.1536h802.645333c3.106133 0 12.0832 11.0592 12.0832 32.1536V760.6272c0 21.0944-8.977067 32.1536-12.0832 32.1536H818.517333v27.2384h220.7744c22.391467 0 39.3216-25.531733 39.3216-59.392v-767.829333c0-33.860267-16.896-59.392-39.3216-59.392zM549.819733 820.0192h179.3024v-27.2384h-179.3024zM369.595733 546.542933h536.746667v-27.2384H369.595733zM369.595733 368.09386700000005h536.746667v-27.2384H369.595733zM369.595733 189.67893300000003h536.746667v-27.2384H369.595733z"  horiz-adv-x="1262" />

    
    <glyph glyph-name="tubiao-10" unicode="&#58892;" d="M906.274133-97.79200000000003H317.678933a27.784533 27.784533 0 0 0-27.7504 27.7504V806.229333c0 15.291733 12.458667 27.7504 27.7504 27.7504h722.568534c15.291733 0 27.7504-12.458667 27.7504-27.7504v-739.84l-161.723734-164.181333zM317.678933 811.076267a4.881067 4.881067 0 0 1-4.846933-4.846934v-876.270933c0-2.6624 2.184533-4.846933 4.846933-4.846933H896.682667l148.411733 150.664533V806.229333a4.881067 4.881067 0 0 1-4.846933 4.846934H317.678933zM541.115733 541.832533h-103.048533V644.778667h103.048533v-102.946134z m-80.145066 22.903467h57.2416V621.8752h-57.2416v-57.1392zM541.115733 351.0272h-103.048533V453.973333h103.048533v-102.946133z m-80.145066 22.903467h57.2416v57.1392h-57.2416v-57.1392zM541.115733 162.133333h-103.048533v102.946134h103.048533V162.133333z m-80.145066 22.903467h57.2416v57.1392h-57.2416v-57.1392zM658.2272 604.740267h302.421333v-22.903467h-302.421333zM658.2272 413.934933h302.421333v-22.903466h-302.421333zM658.2272 225.041067h113.527467v-22.903467h-113.527467zM839.4752-30.993066999999996h-22.903467v182.340267h183.1936v-22.903467h-160.290133z"  horiz-adv-x="1262" />

    
    <glyph glyph-name="tubiao-11" unicode="&#58893;" d="M1024.682667 45.67039999999997a12.424533 12.424533 0 0 0-8.2944 21.6064A427.451733 427.451733 0 0 1 1157.188267 384c0 124.347733-54.0672 242.210133-148.3776 323.447467a12.3904 12.3904 0 1 0 16.1792 18.773333 451.242667 451.242667 0 0 0 156.9792-342.186667c0-127.488-54.306133-249.617067-148.957867-335.121066a12.3904 12.3904 0 0 0-8.328533-3.242667zM920.951467 204.08320000000003a12.356267 12.356267 0 0 0-11.434667 17.134933c21.265067 51.541333 32.017067 106.1888 32.017067 162.440534 0 61.8496-12.936533 121.514667-38.468267 177.288533a12.3904 12.3904 0 0 0 22.528 10.308267 447.249067 447.249067 0 0 0 40.721067-187.562667c0-59.4944-11.400533-117.3504-33.860267-171.861333a12.458667 12.458667 0 0 0-11.502933-7.748267zM716.970667-58.57280000000003a62.464 62.464 0 0 0-30.72 8.055467L294.365867 166.91200000000003h-24.064c-86.971733 0-157.730133 72.226133-157.730134 161.006933v113.527467c0 88.7808 70.7584 161.006933 157.730134 161.006933h48.093866l366.4896 215.313067a63.488 63.488 0 0 0 32.0512 8.840533c35.498667 0 64.375467-29.3888 64.375467-65.536v-754.107733c0-36.1472-28.8768-65.536-64.341333-65.536zM270.301867 577.6725329999999c-73.3184 0-132.949333-61.098667-132.949334-136.226133v-113.527467c0-75.127467 59.630933-136.226133 132.949334-136.226133h30.481066l397.5168-220.5696c5.905067-3.2768 12.1856-4.949333 18.705067-4.949333 19.0464 0 39.560533 15.598933 39.560533 40.7552V761.070933c0 25.1904-20.548267 40.7552-39.594666 40.7552-6.826667 0-13.380267-1.8432-19.490134-5.4272L325.154133 577.6725329999999H270.301867z"  horiz-adv-x="1262" />

    
    <glyph glyph-name="tubiao-12" unicode="&#58894;" d="M1068.509867 600.951467H182.033067a32.221867 32.221867 0 0 0-32.187734 32.187733V818.517333c0 17.749333 14.4384 32.187733 32.187734 32.187734h886.4768c17.749333 0 32.187733-14.4384 32.187733-32.187734v-185.378133c0-17.749333-14.4384-32.187733-32.187733-32.187733zM182.033067 824.149333a5.632 5.632 0 0 1-5.632-5.632v-185.378133c0-3.106133 2.525867-5.632 5.632-5.632h886.4768a5.632 5.632 0 0 1 5.632 5.632V818.517333a5.632 5.632 0 0 1-5.632 5.632H182.033067zM318.532267 768.136533h84.6848v-87.995733H318.532267zM409.838933 673.4848h-97.962666V774.7583999999999h97.962666v-101.2736z m-84.650666 13.277867h71.3728V761.480533H325.188267V686.762667zM1068.509867 250.12906699999996H182.033067a32.221867 32.221867 0 0 0-32.187734 32.187733v185.378133c0 17.749333 14.4384 32.187733 32.187734 32.187734h886.4768c17.749333 0 32.187733-14.4384 32.187733-32.187734v-185.378133c0-17.749333-14.4384-32.187733-32.187733-32.187733zM182.033067 473.326933a5.632 5.632 0 0 1-5.632-5.632v-185.378133c0-3.106133 2.525867-5.632 5.632-5.632h886.4768a5.632 5.632 0 0 1 5.632 5.632v185.378133a5.632 5.632 0 0 1-5.632 5.632H182.033067zM318.532267 417.314133h84.6848v-87.995733H318.532267zM409.838933 322.69653300000004h-97.962666v101.2736h97.962666v-101.2736z m-84.650666 13.277867h71.3728v74.717867H325.188267v-74.717867zM1068.509867-100.65920000000006H182.033067a32.221867 32.221867 0 0 0-32.187734 32.187733v185.378134c0 17.749333 14.4384 32.187733 32.187734 32.187733h886.4768c17.749333 0 32.187733-14.4384 32.187733-32.187733v-185.378134c0-17.749333-14.4384-32.187733-32.187733-32.187733zM182.033067 122.53866700000003a5.632 5.632 0 0 1-5.632-5.632v-185.378134c0-3.106133 2.525867-5.632 5.632-5.632h886.4768a5.632 5.632 0 0 1 5.632 5.632v185.378134a5.632 5.632 0 0 1-5.632 5.632H182.033067zM318.532267 66.49173299999995h84.6848v-87.995733H318.532267zM409.838933-28.12586699999997h-97.962666v101.2736h97.962666v-101.2736z m-84.650666 13.277867h71.3728v74.717867H325.188267v-74.717867z"  horiz-adv-x="1262" />

    
    <glyph glyph-name="tubiao-13" unicode="&#58895;" d="M675.054933-94.75413300000002c-255.317333 0-463.018667 207.701333-463.018666 463.018666S419.7376 831.249067 675.054933 831.249067s463.018667-207.701333 463.018667-463.018667-207.735467-462.984533-463.018667-462.984533z m0 903.68c-242.9952 0-440.661333-197.666133-440.661333-440.661334s197.666133-440.661333 440.661333-440.661333 440.661333 197.666133 440.661334 440.661333-197.700267 440.661333-440.661334 440.661334zM622.660267 187.8016a36.181333 36.181333 0 0 0-36.078934 35.703467l-2.321066 228.932266a35.7376 35.7376 0 0 0 10.3424 25.668267 36.864 36.864 0 0 0 43.383466 6.109867l199.406934-112.469334c11.3664-6.417067 18.193067-17.988267 18.3296-31.0272 0.136533-13.038933-6.485333-24.746667-17.7152-31.402666L640.9216 192.85333300000002a35.84 35.84 0 0 0-18.261333-5.051733z m-2.3552 278.7328a13.9264 13.9264 0 0 1-9.864534-4.164267 13.312 13.312 0 0 1-3.8912-9.728l2.321067-228.932266c0.1024-11.502933 12.561067-16.452267 20.6848-11.639467l197.085867 116.497067a13.4144 13.4144 0 0 1 6.724266 11.946666 13.4144 13.4144 0 0 1-6.9632 11.776l-199.406933 112.469334a13.448533 13.448533 0 0 1-6.690133 1.774933z"  horiz-adv-x="1262" />

    
    <glyph glyph-name="tubiao-14" unicode="&#58896;" d="M637.269333-71.09973300000001c-248.0128 0-449.774933 201.762133-449.774933 449.774933S389.256533 828.4159999999999 637.269333 828.4159999999999s449.774933-201.762133 449.774934-449.774933-201.762133-449.7408-449.774934-449.7408z m0 877.841066c-236.032 0-428.066133-192.034133-428.066133-428.066133s192.034133-428.066133 428.066133-428.066133 428.066133 192.034133 428.066134 428.066133S873.301333 806.7413329999999 637.269333 806.7413329999999zM434.3808 100.1472a14.199467 14.199467 0 0 0-1.8432 0.1024l1.160533 10.786133 0.341334 10.8544c0.580267 0.034133 60.1088 5.085867 201.864533 246.135467 131.9936 224.4608 256.068267 220.637867 261.290667 220.433067l-1.1264-21.674667c-0.955733 0-116.906667 2.048-241.425067-209.749333-141.038933-239.889067-205.038933-256.887467-220.2624-256.887467zM645.256533 373.35040000000004h179.029334v-21.7088h-179.029334z"  horiz-adv-x="1262" />

    
    <glyph glyph-name="tubiao-15" unicode="&#58897;" d="M654.5408-94.75413300000002l-174.7968 195.310933 18.1248 16.213333 155.921067-174.250666 143.598933 173.8752 18.7392-15.4624zM934.912 553.0624a275.012267 275.012267 0 0 1-273.988267 245.4528 274.7392 274.7392 0 0 1-273.851733-245.4528l-24.1664 2.628267a299.008 299.008 0 0 0 298.052267 267.127466 299.281067 299.281067 0 0 0 298.154666-267.127466l-24.200533-2.628267zM509.474133 192.68266700000004H327.68a158.208 158.208 0 0 0-158.037333 158.037333v57.7536a158.208 158.208 0 0 0 158.037333 158.037333h47.3088v-24.302933H327.68a133.905067 133.905067 0 0 1-133.7344-133.7344v-57.7536A133.905067 133.905067 0 0 1 327.68 216.98559999999998h181.828267v-24.302933zM951.261867 192.68266700000004h-192.512v24.302933h192.512a133.905067 133.905067 0 0 1 133.7344 133.7344V360.106667c0 33.928533-14.097067 64.887467-38.7072 84.8896-22.698667 18.466133-39.799467 18.295467-85.674667 18.2272l-25.770667-0.034134v91.170134h24.302934v-66.833067h1.365333c47.786667 0.1024 71.645867 0.238933 101.102933-23.688533 30.3104-24.644267 47.684267-62.464 47.684267-103.765334v-9.386666a158.208 158.208 0 0 0-158.037333-158.0032zM635.630933 340.07039999999995h24.302934v-399.701333h-24.302934z"  horiz-adv-x="1262" />

    
    <glyph glyph-name="tubiao-16" unicode="&#58898;" d="M1060.078933-59.08479999999997H251.904a36.2496 36.2496 0 0 0-36.215467 36.215467V411.136c0 19.968 16.247467 36.215467 36.215467 36.215467h195.959467v-20.6848H251.904a15.530667 15.530667 0 0 1-15.530667-15.530667V-22.869332999999983c0-8.567467 6.9632-15.530667 15.530667-15.530667h808.174933a15.530667 15.530667 0 0 1 15.530667 15.530667V411.136a15.530667 15.530667 0 0 1-15.530667 15.530667h-194.8672v20.6848h194.8672c19.968 0 36.215467-16.247467 36.215467-36.215467V-22.869332999999983c0-19.968-16.247467-36.215467-36.215467-36.215467zM622.557867 43.79306699999995h-108.817067l-212.104533 139.9808H226.065067v20.718933h81.783466l212.104534-139.9808h94.685866l275.933867 246.5792h67.3792l37.922133 32.802133h90.077867v-20.718933h-82.397867l-37.922133-32.768h-67.140267zM658.2272 324.3008a13.1072 13.1072 0 0 0-9.250133 3.822933c-18.158933 18.2272-110.967467 115.6096-155.682134 243.4048-20.3776 58.197333-10.8544 119.5008 26.794667 172.578134 35.601067 50.176 89.838933 82.602667 138.171733 82.602666 48.298667 0 102.5024-32.392533 138.103467-82.5344 37.6832-53.077333 47.240533-114.414933 26.897067-172.6464-41.847467-119.739733-136.942933-223.573333-155.579734-243.165866a13.312 13.312 0 0 0-9.454933-4.061867z m0.034133 481.757867c-41.198933 0-89.9072-29.696-121.275733-73.898667-19.490133-27.477333-48.571733-84.036267-24.1664-153.770667 39.799467-113.732267 121.6512-205.073067 145.271467-229.922133 23.927467 26.112 108.2368 122.9824 145.6128 229.922133 24.405333 69.8368-4.7104 126.3616-24.234667 153.838934-31.3344 44.168533-80.042667 73.8304-121.207467 73.8304zM660.411733 563.3365329999999h-6.0416c-36.1472 0-65.536 29.3888-65.536 65.536s29.3888 65.536 65.536 65.536h6.0416c36.1472 0 65.536-29.3888 65.536-65.536s-29.3888-65.536-65.536-65.536z m-6.0416 110.353067a44.885333 44.885333 0 0 1 0-89.7024h6.0416a44.885333 44.885333 0 0 1 0 89.7024h-6.0416z"  horiz-adv-x="1262" />

    
    <glyph glyph-name="tubiao-17" unicode="&#58899;" d="M428.919467 616.413867h331.0592v-22.186667h-331.0592zM428.919467 470.1184h478.037333v-22.186667H428.919467zM431.0016 323.140267h327.918933v-22.186667h-327.918933zM431.0016 176.503467H905.216v-22.186667H431.0016zM1014.1696-63.965867H305.152a32.836267 32.836267 0 0 0-32.802133 32.802134V805.205333c0 18.090667 14.711467 32.836267 32.802133 32.836267h104.004267v-22.186667H305.152a10.6496 10.6496 0 0 1-10.615467-10.6496v-836.369066c0-5.870933 4.778667-10.615467 10.615467-10.615467h709.0176c5.870933 0 10.615467 4.778667 10.615467 10.615467V805.205333a10.6496 10.6496 0 0 1-10.615467 10.6496h-91.989333v22.186667h91.989333c18.090667 0 32.802133-14.711467 32.802133-32.836267v-836.369066a32.802133 32.802133 0 0 0-32.802133-32.802134zM798.788267 838.0416h56.866133v-22.186667h-56.866133zM635.1872 838.0416h56.866133v-22.186667h-56.866133zM471.552 838.0416h56.866133v-22.186667h-56.866133z"  horiz-adv-x="1262" />

    
    <glyph glyph-name="tubiao-18" unicode="&#58900;" d="M503.3984-51.16586700000005L340.002133 131.41333299999997l14.9504 13.346134 147.831467-165.205334 136.192 164.898134 15.428267-12.731734zM493.090133-36.24959999999999c-8.226133 174.728533 12.0832 415.914667 281.975467 492.407467l5.461333-19.285334c-256.170667-72.6016-275.319467-304.264533-267.434666-472.1664l-20.002134-0.955733zM746.666667-44.612266999999974l-4.3008 19.5584c185.992533 40.823467 320.955733 208.896 320.955733 399.598934 0 225.5872-183.534933 409.122133-409.122133 409.122133S245.077333 600.132267 245.077333 374.545067a409.6 409.6 0 0 1 16.930134-116.8384l-19.217067-5.700267a430.011733 430.011733 0 0 0-17.749333 122.5728c0 236.6464 192.512 429.1584 429.1584 429.1584S1083.392 611.191467 1083.392 374.545067c0-200.055467-141.6192-376.32-336.725333-419.157334z"  horiz-adv-x="1262" />

    
    <glyph glyph-name="tubiao-19" unicode="&#58901;" d="M881.186133-50.551467c-9.898667 0-19.490133 2.423467-28.535466 7.168l-221.184 127.658667-220.808534-127.453867a61.3376 61.3376 0 0 0-75.9808 14.711467 60.074667 60.074667 0 0 0-13.346133 49.698133l38.8096 226.372267a38.434133 38.434133 0 0 1-11.0592 34.065067l-164.4544 160.324266a60.893867 60.893867 0 0 0-15.496533 62.839467 60.893867 60.893867 0 0 0 49.493333 41.710933l227.293867 33.041067c12.526933 1.8432 23.381333 9.693867 28.9792 21.060267l101.649066 205.960533a60.893867 60.893867 0 0 0 54.954667 34.167467c23.517867 0 44.578133-13.1072 54.954667-34.167467l110.592-212.6848 247.808-47.445333a60.757333 60.757333 0 0 0 48.981333-41.642667c7.2704-22.357333 1.3312-46.421333-15.530667-62.839467l-178.961066-163.054933 42.257066-257.774933a60.040533 60.040533 0 0 0-13.380266-49.629867 61.3376 61.3376 0 0 0-47.035734-22.084267zM631.466667 110.59199999999998l232.209066-134.0416c14.9504-7.850667 35.669333-3.925333 47.104 9.659733 7.304533 8.669867 10.274133 19.729067 8.328534 31.1296L874.837333 287.40266699999995l187.835734 171.1104c10.4448 10.171733 14.097067 24.951467 9.454933 39.185066a37.7856 37.7856 0 0 1-31.061333 26.180267l-259.1744 49.595733-115.8144 222.72c-6.724267 13.653333-19.626667 21.674667-34.6112 21.674667s-27.886933-8.021333-34.5088-21.435733l-101.649067-205.960534c-8.9088-18.090667-26.180267-30.6176-46.148267-33.518933l-227.293866-33.041067c-14.813867-2.1504-26.4192-11.946667-31.061334-26.180266-4.642133-14.2336-0.989867-28.9792 9.728-39.458134l164.488534-160.324266c14.4384-14.097067 21.026133-34.372267 17.6128-54.237867l-38.8096-226.372267c-1.9456-11.400533 0.989867-22.459733 8.328533-31.1296a38.912 38.912 0 0 1 47.5136-9.4208l231.799467 133.802667z"  horiz-adv-x="1262" />

    
    <glyph glyph-name="tubiao-20" unicode="&#58902;" d="M634.606933 4.334932999999978c-209.2032 0-379.392 170.1888-379.392 379.392S425.403733 763.118933 634.606933 763.118933s379.392-170.1888 379.392-379.392-170.1888-379.392-379.392-379.392z m0 737.962667c-197.700267 0-358.570667-160.8704-358.570666-358.570667S436.906667 25.156266999999957 634.606933 25.156266999999957 993.1776 186.02666699999997 993.1776 383.72693300000003 832.3072 742.2976 634.606933 742.2976zM251.323733 636.1088a10.410667 10.410667 0 0 0-7.3728 17.749333l167.8336 167.8336a10.410667 10.410667 0 0 0 14.711467-14.711466L258.6624 639.146667a10.376533 10.376533 0 0 0-7.338667-3.037867zM305.800533-68.71040000000005a10.410667 10.410667 0 0 0-7.3728 17.749333l127.658667 127.658667a10.410667 10.410667 0 0 0 14.711467-14.711467l-127.658667-127.658666a10.24 10.24 0 0 0-7.338667-3.037867zM1039.018667 636.1088a10.513067 10.513067 0 0 0-7.3728 3.037867l-167.8336 167.8336a10.410667 10.410667 0 0 0 14.711466 14.711466l167.8336-167.8336a10.410667 10.410667 0 0 0-7.338666-17.749333zM1003.588267-58.879999999999995a10.513067 10.513067 0 0 0-7.3728 3.037867l-132.369067 132.369066a10.410667 10.410667 0 0 0 14.711467 14.711467l132.369066-132.369067a10.410667 10.410667 0 0 0-7.338666-17.749333zM826.7776 312.49066700000003h-228.9664V564.565333h20.7872v-231.253333h208.1792z"  horiz-adv-x="1262" />

    
    <glyph glyph-name="tubiao-21" unicode="&#58903;" d="M362.1888 156.36479999999995l-218.658133 180.599467a40.311467 40.311467 0 0 0-1.194667 61.201066l219.579733 196.5056 13.653334-15.2576-219.579734-196.5056a19.8656 19.8656 0 0 1 0.580267-30.173866l218.658133-180.599467-13.038933-15.7696zM954.299733 156.36479999999995l-13.038933 15.803733 218.658133 180.599467a19.797333 19.797333 0 0 1 0.580267 30.173867l-219.579733 196.5056 13.653333 15.2576 219.579733-196.5056a40.448 40.448 0 0 0-1.194666-61.201067l-218.658134-180.6336zM735.4368 657.783467l19.1488-7.2704-204.868267-540.330667-19.114666 7.236267z"  horiz-adv-x="1262" />

    
    <glyph glyph-name="tubiao-22" unicode="&#58904;" d="M78.1312 212.548267a10.24 10.24 0 0 0-6.519467 18.1248l116.087467 95.880533a5.632 5.632 0 0 1 2.082133 4.334933 5.666133 5.666133 0 0 1-1.911466 4.4032L71.304533 439.637333a10.24 10.24 0 1 0 13.653334 15.223467l116.565333-104.3456a26.146133 26.146133 0 0 0-0.8192-39.7312l-116.087467-95.880533a9.9328 9.9328 0 0 0-6.485333-2.3552zM303.8208 364.88533299999995h273.3056v-63.863466H303.8208zM582.2464 295.90186700000004H298.734933v74.069333h283.5456v-74.069333z m-273.3056 10.24h263.099733V359.76533300000006H308.9408v-53.623466zM725.674667 212.548267a10.24 10.24 0 0 0-6.519467 18.1248l116.087467 95.880533a5.632 5.632 0 0 1 2.082133 4.334933 5.666133 5.666133 0 0 1-1.911467 4.4032L718.848 439.637333a10.24 10.24 0 1 0 13.653333 15.223467l116.565334-104.3456a26.146133 26.146133 0 0 0-0.8192-39.7312l-116.087467-95.880533a10.001067 10.001067 0 0 0-6.485333-2.3552zM980.718933 364.88533299999995h268.219734v-63.863466h-268.219734zM1254.058667 295.90186700000004h-278.4256v74.069333h278.4256v-74.069333z m-268.219734 10.24h257.979734V359.76533300000006h-257.979734v-53.623466z"  horiz-adv-x="1262" />

    
    <glyph glyph-name="tubiao-23" unicode="&#58905;" d="M499.8144 167.73119999999994h-13.312a94.958933 94.958933 0 0 0-94.856533 94.856533v13.312a94.958933 94.958933 0 0 0 94.856533 94.856534h13.312a94.993067 94.993067 0 0 0 94.890667-94.856534v-13.312a94.993067 94.993067 0 0 0-94.890667-94.856533z m-13.312 179.2c-39.150933 0-70.997333-31.8464-70.997333-70.997333v-13.312c0-39.150933 31.8464-70.997333 70.997333-70.997334h13.312c39.150933 0 70.997333 31.8464 70.997333 70.997334v13.312c0 39.150933-31.8464 70.997333-70.997333 70.997333h-13.312zM539.784533-8.806400000000053c-176.264533 0-358.570667 96.085333-358.570666 256.853333 0 80.008533 44.3392 171.997867 124.859733 259.106134 59.2896 64.1024 169.8816 171.6224 244.394667 171.6224 28.433067 0 52.360533-9.659733 69.290666-27.9552 18.0224-19.5584 18.466133-78.4384 12.834134-122.845867 31.470933 11.025067 61.2352 16.7936 86.971733 16.7936 53.384533 0 79.7696-23.552 92.501333-43.3152 16.827733-25.975467 28.194133-111.854933 18.978134-158.549333 14.882133-4.369067 29.4912-7.236267 43.7248-10.0352 43.9296-8.567467 85.4016-16.6912 85.4016-70.0416 0-123.050667-187.528533-271.633067-420.386134-271.633067z m10.683734 663.688533c-47.786667 0-130.4576-59.767467-226.850134-163.9424-76.424533-82.670933-118.510933-168.925867-118.510933-242.8928 0-145.851733 170.154667-232.96 334.677333-232.96 219.648 0 396.4928 135.543467 396.4928 247.739734 0 32.324267-20.2752 37.649067-66.082133 46.592-17.5104 3.413333-37.376 7.304533-57.4464 14.267733l-11.229867 3.8912 3.822934 11.264c12.663467 37.239467 0.238933 128.750933-13.346134 149.674667-9.557333 14.779733-29.832533 32.392533-72.430933 32.392533-27.921067 0-61.610667-7.748267-97.450667-22.459733l-20.445866-8.362667 4.1984 21.7088c10.990933 57.002667 5.4272 112.981333-3.6864 122.845867-12.219733 13.243733-30.1056 20.241067-51.712 20.241066zM978.670933 453.8368a11.8784 11.8784 0 0 0-11.6736 9.557333 193.092267 193.092267 0 0 1-188.586666 153.7024 11.946667 11.946667 0 0 0 0 23.893334 217.088 217.088 0 0 0 212.002133-172.782934 11.946667 11.946667 0 0 0-11.741867-14.370133zM1134.318933 429.192533a11.946667 11.946667 0 0 0-11.810133 10.171734c-26.897067 178.756267-183.7056 313.5488-364.817067 313.5488a11.946667 11.946667 0 0 0 0 23.893333c192.8192 0 359.799467-143.5648 388.437334-333.892267a11.946667 11.946667 0 0 0-11.810134-13.7216z"  horiz-adv-x="1262" />

    
    <glyph glyph-name="tubiao-24" unicode="&#58906;" d="M443.118933 725.742933h669.354667v-24.029866h-669.354667zM315.392 616.072533H209.851733V656.622933H169.642667V759.569067h40.209066V797.866667H319.146667v-40.584534h39.424v-104.0384H315.392v-37.1712z m-81.5104 24.029867h57.480533V677.2736h43.2128v55.978667H295.1168V773.8368H233.8816v-38.2976H193.706667v-54.852267h40.209066v-40.584533zM443.118933 402.466133h669.354667v-24.029866h-669.354667zM315.392 292.76160000000004H209.851733v40.584533H169.642667v102.912h40.209066v38.2976H319.146667v-40.584533h39.424v-104.0384H315.392v-37.1712z m-81.5104 24.064h57.480533v37.1712h43.2128v55.978667H295.1168V450.56H233.8816v-38.2976H193.706667v-54.852267h40.209066v-40.584533zM443.118933 79.15520000000004h669.354667v-24.029867h-669.354667zM315.392-18.500267000000008H209.851733v40.584534H169.642667v102.912h40.209066v38.2976H319.146667v-40.584534h39.424v-104.0384H315.392v-37.1712z m-81.5104 24.029867h57.480533v37.1712h43.2128v55.978667H295.1168V139.264H233.8816v-38.2976H193.706667v-54.852267h40.209066v-40.584533z"  horiz-adv-x="1262" />

    
    <glyph glyph-name="tubiao-25" unicode="&#58907;" d="M780.117333-68.26666699999998H223.197867a47.445333 47.445333 0 0 0-47.4112 47.4112V769.092267a47.445333 47.445333 0 0 0 47.4112 47.4112h782.062933a47.445333 47.445333 0 0 0 47.4112-47.4112v-240.9472h-23.688533V769.092267a23.722667 23.722667 0 0 1-23.688534 23.688533H223.197867a23.722667 23.722667 0 0 1-23.688534-23.688533v-789.981867c0-13.073067 10.6496-23.688533 23.688534-23.688533h556.919466v-23.688534zM334.779733 626.8928000000001h532.241067v-23.688533H334.779733zM334.779733 466.261333h176.7424v-23.688533H334.779733zM334.779733 305.629867h176.7424v-23.688534H334.779733zM334.779733 145.03253299999994h173.7728v-23.688533H334.779733zM931.9424-80.11093300000005h-88.610133v270.5408l-252.791467 187.5968v94.8224h592.4864V384l-245.009067-183.773867-6.075733-280.337066z m-64.9216 23.688533h41.710933l5.802667 268.6976 244.770133 183.569067v53.316266H614.229333v-59.221333l252.791467-187.5968v-258.7648z"  horiz-adv-x="1262" />

    
    <glyph glyph-name="tubiao-26" unicode="&#58908;" d="M381.610667 821.1797329999999h773.290666v-26.0096H381.610667zM381.610667 650.581333h773.290666v-26.0096H381.610667zM381.610667 480.017067h773.290666v-26.0096H381.610667zM381.610667 309.418667h773.290666v-26.0096H381.610667zM381.610667 138.85440000000006h773.290666v-26.0096H381.610667zM381.610667-31.70986700000003h773.290666v-26.0096H381.610667zM204.526933 624.605867H90.4192V668.4672H46.967467v111.274667h43.451733V821.1797329999999h118.1696v-43.861333H251.221333v-112.503467H204.526933v-40.209066zM116.394667 650.581333h62.122666V690.7904h46.6944V751.3088H182.613333V795.170133H116.394667v-41.437866H72.942933v-59.2896H116.394667V650.581333zM204.526933 275.04639999999995H90.4192v43.861333H46.967467v111.274667h43.451733v41.437867h118.1696v-43.861334H251.221333v-112.503466H204.526933v-40.209067zM116.394667 301.05600000000004h62.122666v40.209067h46.6944v60.5184H182.613333v43.861333H116.394667v-41.437867H72.942933v-59.2896H116.394667v-43.861333zM204.526933-61.508267000000046H90.4192v43.861334H46.967467v111.274666h43.451733v41.437867h118.1696v-43.861333H251.221333v-112.503467H204.526933v-40.209067zM116.394667-35.498666999999955h62.122666v40.209067h46.6944V65.19466699999998H182.613333v43.861333H116.394667v-41.437867H72.942933v-59.2896H116.394667v-43.8272z"  horiz-adv-x="1262" />

    
    <glyph glyph-name="tubiao-27" unicode="&#58909;" d="M709.051733-56.831999999999994c-9.489067 0-18.432 3.652267-25.1904 10.308267L192.034133 435.3024l11.844267 265.693867a139.8784 139.8784 0 0 0 139.9808 133.9392l3.003733-0.034134 242.141867-5.085866 487.389867-488.5504c6.826667-6.826667 10.5472-15.906133 10.513066-25.565867a35.7376 35.7376 0 0 0-10.752-25.531733l-341.8112-336.622934a35.84 35.84 0 0 0-25.2928-10.376533zM215.381333 444.5184l484.522667-474.658133a13.4144 13.4144 0 0 1 18.3296 0.034133l341.8112 336.622933a12.9024 12.9024 0 0 1 3.8912 9.250134 12.9024 12.9024 0 0 1-3.822933 9.250133L579.242667 807.048533l-235.4176 4.9152a117.009067 117.009067 0 0 1-117.077334-112.0256l-11.3664-255.419733zM451.2768 501.077333c-41.096533 0-74.5472 33.450667-74.5472 74.5472s33.450667 74.5472 74.5472 74.5472 74.5472-33.450667 74.5472-74.5472-33.450667-74.5472-74.5472-74.5472z m0 126.190934c-28.4672 0-51.6096-23.1424-51.6096-51.6096s23.1424-51.6096 51.6096-51.6096 51.6096 23.1424 51.6096 51.6096c0 28.433067-23.1424 51.6096-51.6096 51.6096z"  horiz-adv-x="1262" />

    
    <glyph glyph-name="tubiao-28" unicode="&#58910;" d="M367.0016 780.936533h479.3344v-19.285333H367.0016zM303.069867 684.8512000000001h605.5936v-19.285333H303.069867zM959.829333-38.53653299999996H251.904a42.564267 42.564267 0 0 0-42.530133 42.530133V552.448c0 23.4496 19.080533 42.530133 42.530133 42.530133h707.925333c23.4496 0 42.530133-19.080533 42.530134-42.530133v-548.488533c0-23.415467-19.080533-42.496-42.530134-42.496zM251.904 575.6928a23.278933 23.278933 0 0 1-23.2448-23.2448v-548.488533c0-12.8 10.410667-23.2448 23.2448-23.2448h707.925333a23.278933 23.278933 0 0 1 23.2448 23.2448V552.448a23.278933 23.278933 0 0 1-23.2448 23.2448H251.904zM368.0256 468.718933h30.754133v-63.726933h-30.754133zM403.592533 400.145067H363.178667v73.386666h40.413866v-73.386666z m-30.754133 9.659733h21.0944v54.101333h-21.0944v-54.101333zM463.325867 468.3776h31.573333v-63.3856h-31.573333zM499.712 400.145067h-41.233067v73.045333h41.233067v-73.045333z m-31.573333 9.659733h21.9136V463.530667h-21.9136v-53.725867zM399.394133 500.565333h63.7952v-31.880533h-63.7952zM468.002133 463.906133H394.581333v41.506134h73.4208v-41.506134z m-63.7952 9.6256h54.135467v22.2208h-54.135467v-22.2208zM399.530667 404.992h63.7952v-31.880533h-63.7952zM468.138667 368.298667h-73.4208v41.506133h73.4208v-41.506133z m-63.7952 9.6256h54.135466v22.2208h-54.135466v-22.2208zM271.803733 149.98186699999997h31.8464v-31.880534h-31.8464zM308.462933 113.28853300000003H266.990933v41.506134h41.506134v-41.506134z m-31.8464 9.659734h22.186667v22.2208h-22.186667v-22.2208zM303.650133 181.86239999999998h31.8464v-31.880533h-31.8464zM340.309333 145.16906700000004H298.837333v41.506133H340.309333v-41.506133z m-31.8464 9.6256h22.186667v22.2208h-22.186667v-22.2208zM303.650133 213.7088h31.8464v-31.880533h-31.8464zM340.309333 177.01546699999994H298.837333v41.540266H340.309333v-41.540266z m-31.8464 9.659733h22.186667v22.2208h-22.186667v-22.2208zM335.496533 245.589333h31.8464v-31.880533h-31.8464zM372.155733 208.89599999999996H330.683733v41.506133h41.506134v-41.506133z m-31.8464 9.659733h22.186667v22.2208h-22.186667v-22.2208zM367.342933 277.19680000000005h31.8464v-31.607467h-31.8464zM404.002133 240.77653299999997H362.496v41.2672h41.506133v-41.2672z m-31.8464 9.6256h22.186667v21.981867h-22.186667v-21.981867zM399.189333 277.19680000000005h31.8464v-31.607467h-31.8464zM435.848533 240.77653299999997h-41.506133v41.2672h41.506133v-41.2672z m-31.8464 9.6256h22.186667v21.981867h-22.186667v-21.981867zM431.035733 245.45280000000002h32.290134v-31.607467h-32.290134zM468.138667 209.03253299999994h-41.949867v41.2672h41.949867v-41.2672z m-32.290134 9.6256h22.6304V240.64h-22.6304v-21.981867zM463.325867 213.84533299999998h31.675733v-31.9488h-31.675733zM499.848533 177.08373300000005h-41.335466v41.5744h41.335466v-41.5744z m-31.709866 9.659734h22.050133v22.289066h-22.050133v-22.289066zM495.0016 181.89653299999998h31.675733v-31.9488h-31.675733zM531.524267 145.13493300000005h-41.335467v41.608534h41.335467v-41.608534z m-31.675734 9.659734h22.050134v22.289066h-22.050134v-22.289066zM590.677333 181.89653299999998h31.675734v-31.9488h-31.675734zM627.2 145.13493300000005h-41.335467v41.608534h41.335467v-41.608534z m-31.675733 9.659734h22.050133v22.289066h-22.050133v-22.289066zM590.677333 213.6064h31.675734v-31.709867h-31.675734zM627.2 177.08373300000005h-41.335467V218.45333300000004h41.335467v-41.3696z m-31.675733 9.659734h22.050133v22.050133h-22.050133v-22.050133zM622.318933 245.5552h32.221867v-32.017067h-32.221867zM659.3536 208.72533299999998H617.472v41.6768h41.8816v-41.6768z m-32.221867 9.659734h22.562134v22.357333h-22.562134v-22.357333zM654.506667 277.572267h31.982933v-32.017067h-31.982933zM691.3024 240.74239999999998h-41.608533v41.6768h41.608533v-41.6768z m-31.9488 9.659733h22.3232v22.357334h-22.3232v-22.357334zM654.506667 309.589333h31.982933v-32.017066h-31.982933zM691.3024 272.759467h-41.608533v41.6768h41.608533v-41.6768z m-31.9488 9.659733h22.3232v22.357333h-22.3232v-22.357333zM686.4896 340.95786699999996h31.982933v-31.778134h-31.982933zM723.285333 304.366933h-41.608533v41.437867h41.608533v-41.437867z m-31.982933 9.6256h22.3232v22.152534h-22.3232v-22.152534zM718.472533 372.667733h31.709867v-31.675733h-31.709867zM754.9952 336.14506700000004h-41.3696v41.335466h41.3696v-41.335466z m-31.709867 9.659733h22.084267v22.050133h-22.084267v-22.050133zM749.909333 404.548267h95.8464v-31.5392H749.909333zM850.602667 368.19626700000003h-105.506134v41.198933h105.506134v-41.198933z m-95.8464 9.6256h86.186666v21.879466h-86.186666v-21.879466zM814.2848 373.00906699999996h63.5904v-31.778134h-63.5904zM882.688 336.418133h-73.250133V377.856h73.250133v-41.437867z m-63.5904 9.659734h53.930667v22.1184h-53.930667v-22.1184zM877.841067 341.12853299999995h31.778133v-31.675733h-31.778133zM914.466133 304.64h-41.437866v41.301333h41.437866v-41.301333z m-31.778133 9.659733h22.152533v22.016h-22.152533v-22.016zM909.653333 308.94079999999997h31.778134v-31.607467h-31.778134zM946.244267 272.4864h-41.437867v41.2672h41.437867v-41.2672z m-31.778134 9.659733h22.152534v21.981867h-22.152534v-21.981867zM941.431467 277.29920000000004h31.778133v-31.607467h-31.778133zM978.056533 240.87893299999996H936.618667v41.2672h41.437866v-41.2672z m-31.812266 9.6256h22.152533v21.981867h-22.152533v-21.981867zM526.711467 149.94773299999997h31.675733v-31.9488h-31.675733zM563.2 113.18613300000004h-41.335467v41.5744H563.2v-41.5744z m-31.675733 9.659734h22.050133v22.289066h-22.050133v-22.289066zM558.3872 149.94773299999997h32.290133v-31.9488h-32.290133zM595.524267 113.18613300000004h-41.949867v41.5744h41.949867v-41.5744z m-32.324267 9.659734h22.6304v22.289066H563.2v-22.289066z"  horiz-adv-x="1262" />

    
    <glyph glyph-name="weibiaoti--" unicode="&#58911;" d="M590.165333-65.877333A467.968 467.968 0 1 0 1058.133333 402.090667a468.309333 468.309333 0 0 0-467.968-467.968z m0 902.485333A434.517333 434.517333 0 1 1 1024 402.090667 435.2 435.2 0 0 1 590.165333 836.608zM792.234667 186.709333L590.506667 562.517333l-200.362667-375.808-29.013333 15.701334 229.034666 430.421333 231.424-430.421333-29.354666-15.701334zM470.016 402.090667h236.202667v-33.109334h-236.202667z"  horiz-adv-x="1262" />

    
    <glyph glyph-name="weibiaoti--1" unicode="&#58912;" d="M384 720.213333h225.28v-35.157333h-225.28zM386.048 531.797333h485.376v-35.157333H386.048zM386.048 345.429333h485.376v-35.157333H386.048zM988.501333 83.285333L1024 118.442667v49.834666l-35.498667-35.157333v-49.834667zM873.472-32.085333h-49.834667l-35.157333-35.157334h49.493333l35.498667 35.157334zM988.842667 133.12l-165.888-165.546667h49.834666l116.053334 116.053334v49.493333zM953.685333 872.106667H302.762667a70.314667 70.314667 0 0 1-70.314667-70.314667v-799.061333a70.314667 70.314667 0 0 1 70.314667-70.314667h485.034666l34.133334 34.133333H302.762667a34.133333 34.133333 0 0 0-34.133334 34.133334V801.792a34.133333 34.133333 0 0 0 34.133334 34.133333h650.922666a34.133333 34.133333 0 0 0 34.133334-34.133333v-668.672l34.133333 34.133333V801.792a70.314667 70.314667 0 0 1-68.266667 70.314667zM1024 168.618667l-35.157333-35.498667v-49.493333L1024 118.784v49.834667zM872.789333-32.426667h-49.834666l-35.157334-35.157333h49.834667l35.157333 35.157333zM948.224 196.608H795.306667a34.133333 34.133333 0 0 1-34.133334-34.133333V8.533333h34.133334v136.533334a17.749333 17.749333 0 0 0 17.749333 17.749333h136.533333z"  horiz-adv-x="1262" />

    
    <glyph glyph-name="weibiaoti--2" unicode="&#58913;" d="M434.176 588.8a68.266667 68.266667 0 1 0 68.266667 68.266667 68.266667 68.266667 0 0 0-68.266667-68.266667z m0 105.130667A36.522667 36.522667 0 1 1 470.698667 657.066667a36.522667 36.522667 0 0 1-36.522667 36.864zM609.621333 315.733333h-55.296l-4.778666 7.168c-60.074667 88.064-114.346667 130.730667-156.330667 122.88-49.493333-8.874667-79.189333-88.064-86.357333-117.76l-31.061334 7.509334c0 5.12 31.402667 126.976 111.616 141.653333 55.296 10.24 116.736-34.133333 183.637334-129.365333h14.677333c17.066667 50.858667 90.794667 250.538667 214.357333 262.826666 80.554667 8.192 162.133333-64.512 243.029334-215.722666l-28.330667-15.018667c-74.069333 138.922667-145.408 204.8-211.626667 198.997333-117.418667-12.288-188.757333-249.514667-188.757333-251.904zM985.088 793.6a32.085333 32.085333 0 0 0 32.085333-32.085333v-550.912a32.085333 32.085333 0 0 0-32.085333-32.085334H256a32.085333 32.085333 0 0 0-32.085333 32.085334V761.514667A32.085333 32.085333 0 0 0 256 793.6h729.088m0 32.085333H256a64.170667 64.170667 0 0 1-64.170667-64.170666v-550.912A64.170667 64.170667 0 0 1 256 145.066667h729.088a64.170667 64.170667 0 0 1 64.170667 64.170666V761.514667a64.170667 64.170667 0 0 1-64.170667 64.170666zM263.168 6.485333h719.189333V-25.6H263.168z"  horiz-adv-x="1262" />

    
    <glyph glyph-name="weibiaoti--3" unicode="&#58914;" d="M435.541333 435.2a60.074667 60.074667 0 1 0 60.074667 60.074667 60.416 60.416 0 0 0-60.074667-60.074667z m0 91.818667a31.402667 31.402667 0 1 1 31.402667-31.402667 31.402667 31.402667 0 0 1-31.402667 31.061333zM580.266667 193.877333h-37.546667l-4.437333 6.144c-53.589333 78.848-102.4 117.077333-139.946667 109.909334-44.373333-8.192-70.656-78.848-77.141333-105.130667l-27.989334 6.826667c0 4.778667 27.989333 113.664 99.669334 126.634666 49.152 9.216 104.448-30.037333 164.522666-115.712h12.970667c15.018667 45.738667 81.237333 223.914667 191.829333 235.178667 72.021333 7.168 145.066667-57.685333 217.429334-193.194667l-25.258667-13.653333c-66.218667 124.245333-130.048 183.978667-189.44 178.176-105.130667-10.581333-170.666667-222.890667-170.666667-224.938667l-3.072-10.24zM928.085333 622.933333a28.672 28.672 0 0 0 28.672-28.672v-494.250666a28.672 28.672 0 0 0-28.672-28.672H275.797333a28.672 28.672 0 0 0-28.672 28.672V592.896A28.672 28.672 0 0 0 275.797333 622.933333h652.288m0 28.672H275.797333A57.344 57.344 0 0 1 218.453333 592.896v-492.885333A57.344 57.344 0 0 1 275.797333 42.666667h652.288a57.344 57.344 0 0 1 57.344 57.344V592.896a57.344 57.344 0 0 1-57.344 57.344zM162.474667 423.936l-20.138667 20.48L44.373333 346.453333l-20.138666-20.48 20.138666-20.138666 97.962667-97.962667 20.138667 20.138667L64.853333 325.973333l97.621334 97.962667zM1041.408 423.936l20.138667 20.48 97.962666-97.962667 20.138667-20.48-20.138667-20.138666-97.962666-97.962667-20.138667 20.138667 97.962667 97.962666-97.962667 97.962667z"  horiz-adv-x="1262" />

    
    <glyph glyph-name="weibiaoti--4" unicode="&#58915;" d="M366.592 705.536h40.96v-40.96h-40.96zM389.12 687.104v-4.096h-4.096v4.096h4.096M425.984 725.333333H348.16v-78.848h77.824V725.333333zM366.592 391.850667h40.96v-40.96h-40.96zM389.12 373.418667v-4.096h-4.096v4.096h4.096m36.864 36.864H348.16v-77.824h77.824v77.824zM366.592 77.824h40.96v-40.96h-40.96zM389.12 59.733333v-4.096h-4.096v4.096h4.096m36.864 36.864H348.16v-77.824h77.824v77.482667zM1017.173333 765.610667v-159.402667h-750.933333a36.864 36.864 0 0 0-38.570667 36.522667V728.746667a36.864 36.864 0 0 0 36.864 36.864h750.933334m36.864 36.864H264.533333A73.728 73.728 0 0 1 190.805333 728.746667v-86.016a73.728 73.728 0 0 1 73.728-73.386667h789.162667V802.474667zM1017.173333 452.266667v-159.744h-750.933333a36.864 36.864 0 0 0-36.864 36.864v84.992A36.864 36.864 0 0 0 264.533333 452.266667h750.933334m38.229333 34.133333H264.533333a73.728 73.728 0 0 1-73.728-73.728v-86.016a73.728 73.728 0 0 1 73.728-73.728h789.162667V486.4zM1017.173333 136.533333v-159.744h-750.933333a36.864 36.864 0 0 0-36.864 36.864v86.357334a36.864 36.864 0 0 0 36.864 36.864h750.933333m36.864 36.864H264.533333a73.728 73.728 0 0 1-73.728-73.728v-86.016A73.728 73.728 0 0 1 264.533333-59.733333h789.162667v233.130666z"  horiz-adv-x="1262" />

    
    <glyph glyph-name="weibiaoti--5" unicode="&#58916;" d="M777.557333 437.248c-121.856 0-197.290667-102.4-220.842666-140.970667a280.234667 280.234667 0 0 1-105.813334 23.552 170.666667 170.666667 0 0 1-47.786666-6.485333 217.088 217.088 0 0 1 19.797333-31.061333 143.36 143.36 0 0 0 28.330667 2.730666 259.072 259.072 0 0 0 105.130666-26.624l15.018667-6.826666 7.509333 15.018666s70.314667 136.533333 198.997334 136.533334a190.805333 190.805333 0 0 0 26.624-2.048h6.485333v13.312a218.112 218.112 0 0 1 0 21.845333h-2.389333a225.28 225.28 0 0 1-31.402667 2.389333zM846.506667 428.032v-36.181333a222.549333 222.549333 0 0 0 141.312-186.026667v-10.922667l10.581333-3.072s100.010667-30.378667 121.856-104.789333c13.994667-47.445333-6.144-102.4-60.074667-168.277333H317.781333c-16.384 11.264-78.848 58.709333-81.578666 118.101333-1.706667 37.205333 20.48 73.728 66.218666 109.226667l4.096 3.413333v5.12a192.512 192.512 0 0 0 81.237334 115.712 251.562667 251.562667 0 0 0-17.749334 30.037333 222.549333 222.549333 0 0 1-94.890666-129.706666c-52.224-41.642667-77.824-87.04-75.434667-136.533334 4.096-86.357333 97.962667-145.749333 102.4-148.48l4.096-2.730666h771.413333l5.12 6.144c65.536 76.117333 89.770667 145.749333 72.021334 206.506666-22.528 77.141333-105.472 114.005333-136.533334 124.928a252.245333 252.245333 0 0 1-173.738666 204.8zM595.626667 664.234667a250.88 250.88 0 0 1-224.256-364.544c4.096 2.389333 8.533333 4.778667 12.970666 6.826666a151.210667 151.210667 0 0 0 18.773334 6.826667 216.746667 216.746667 0 1 0 409.6 121.514667 202.069333 202.069333 0 0 0 34.133333-6.826667 251.562667 251.562667 0 0 1-250.538667 236.202667zM403.456 313.344a151.552 151.552 0 0 1-18.773333-6.826667c-4.437333-2.048-8.874667-4.437333-12.970667-6.826666a251.562667 251.562667 0 0 1 17.749333-30.037334l9.216 4.778667a119.808 119.808 0 0 0 24.576 7.168 217.088 217.088 0 0 0-19.797333 31.061333zM811.349333 434.858667a218.112 218.112 0 0 0 0-21.845334v-13.312a173.738667 173.738667 0 0 0 34.133334-7.850666v21.162666 15.018667a202.069333 202.069333 0 0 1-34.133334 6.826667zM192.2048 306.3808l111.274667 69.2224 18.432-29.559467L210.602667 276.821333zM192.989867 614.2976l16.384 30.72 115.643733-61.7472-16.384-30.72zM385.706667 815.104l23.790933 25.3952 95.709867-89.531733-23.790934-25.429334zM657.408 733.013333l61.678933 115.643734 30.72-16.384-61.713066-115.643734zM837.393067 579.106133l111.274666 69.256534 18.397867-29.559467-111.274667-69.256533z"  horiz-adv-x="1262" />

    
    <glyph glyph-name="weibiaoti--6" unicode="&#58917;" d="M892.928 657.066667a34.133333 34.133333 0 0 0 34.133333-34.133334v-537.6a34.133333 34.133333 0 0 0-34.133333-34.133333H318.805333a34.133333 34.133333 0 0 0-34.133333 34.133333V622.933333a34.133333 34.133333 0 0 0 34.133333 34.133334h574.122667m0 34.133333H318.805333a70.656 70.656 0 0 1-70.656-68.266667v-537.6a70.656 70.656 0 0 1 70.656-70.656h574.122667a70.656 70.656 0 0 1 70.656 70.656V622.933333a70.656 70.656 0 0 1-70.656 70.656zM323.584 767.658667H207.872a34.133333 34.133333 0 0 1-34.133333-34.133334V579.242667h36.864V712.021333a17.749333 17.749333 0 0 0 17.749333 17.749334h95.232V767.658667zM1003.861333 767.658667H887.466667v-37.888h95.232a17.749333 17.749333 0 0 0 17.749333-17.749334v-133.12h37.888v153.6a34.133333 34.133333 0 0 1-34.133333 34.133334zM1038.336 128.682667h-37.888v-133.12a17.749333 17.749333 0 0 0-17.749333-17.749334H887.466667V-59.733333h115.712a34.133333 34.133333 0 0 1 34.133333 34.133333v154.282667zM210.602667 128.682667H172.714667V-25.6a34.133333 34.133333 0 0 1 34.133333-34.133333h116.736v37.888H228.352a17.749333 17.749333 0 0 0-17.749333 17.749333v133.12z"  horiz-adv-x="1262" />

    
    <glyph glyph-name="weibiaoti--7" unicode="&#58918;" d="M261.461333 701.098667h89.770667v-89.770667H261.461333zM441.002667 701.098667v-89.770667h89.770666V701.098667h-89.770666zM261.461333 340.650667h717.141334v-41.984H261.461333zM261.461333 160.42666699999995h717.141334v-41.984H261.461333zM710.314667 835.925333H166.229333a84.309333 84.309333 0 0 1-83.968-84.309333v-727.04A84.309333 84.309333 0 0 1 166.229333-59.733333000000016h951.296a84.309333 84.309333 0 0 1 84.309334 84.309333V709.6320000000001A84.309333 84.309333 0 0 1 1117.525333 793.6H710.314667V835.925333z m-544.085334-853.333333a41.984 41.984 0 0 0-41.984 41.984V751.616A41.984 41.984 0 0 0 166.229333 793.6h500.053334v-233.130667A84.309333 84.309333 0 0 1 750.933333 476.16h409.6v-451.584a41.984 41.984 0 0 0-41.984-41.984zM750.933333 518.4853330000001a41.984 41.984 0 0 0-41.984 41.984v191.146667h409.6A41.984 41.984 0 0 0 1160.533333 709.6320000000001v-191.146667z"  horiz-adv-x="1262" />

    
    <glyph glyph-name="weibiaoti--8" unicode="&#58919;" d="M522.24 822.613333a42.325333 42.325333 0 0 0 42.325333-42.325333v-781.312a42.325333 42.325333 0 0 0-42.325333-42.325333H238.933333a42.325333 42.325333 0 0 0-42.325333 42.325333V780.288A42.325333 42.325333 0 0 0 238.933333 822.613333h283.306667m0 42.666667H238.933333a84.992 84.992 0 0 1-84.309333-84.992v-781.312A84.992 84.992 0 0 1 238.933333-85.674667h283.306667a84.992 84.992 0 0 1 84.992 84.992V780.288A84.992 84.992 0 0 1 522.24 865.28zM1064.96 865.28h-282.965333a84.992 84.992 0 0 1-84.992-84.992v-781.312a84.992 84.992 0 0 1 84.992-84.992h189.098666v42.666667h-189.098666a42.325333 42.325333 0 0 0-42.325334 42.325333V780.288a42.325333 42.325333 0 0 0 42.325334 42.325333h282.965333a42.325333 42.325333 0 0 0 42.325333-42.325333V182.613333h42.325334V780.288A84.992 84.992 0 0 1 1064.96 865.28zM1149.952 140.288H1013.76v-225.962667h42.325333v183.637334h96.256v-141.312h-2.389333v-42.325334H1194.666667v225.962667h-44.714667z"  horiz-adv-x="1262" />

    
    <glyph glyph-name="weibiaoti--9" unicode="&#58920;" d="M533.504 765.952a34.133333 34.133333 0 0 0 34.133333-34.133333v-234.496a34.133333 34.133333 0 0 0-34.133333-34.133334H299.008a34.133333 34.133333 0 0 0-34.133333 34.133334V730.794667a34.133333 34.133333 0 0 0 34.133333 34.133333h234.496m0 34.133333H299.008a70.314667 70.314667 0 0 1-70.314667-68.266666v-234.496a70.314667 70.314667 0 0 1 70.314667-70.314667h234.496a70.314667 70.314667 0 0 1 70.314667 70.314667V730.794667a70.314667 70.314667 0 0 1-70.314667 70.314666zM984.064 765.952a34.133333 34.133333 0 0 0 34.133333-34.133333v-234.496a34.133333 34.133333 0 0 0-34.133333-34.133334H750.933333a34.133333 34.133333 0 0 0-34.133333 34.133334V730.794667a34.133333 34.133333 0 0 0 34.133333 34.133333h234.496m0 34.133333H750.933333a70.314667 70.314667 0 0 1-71.68-68.266666v-234.496a70.314667 70.314667 0 0 1 71.68-70.314667h234.496a70.314667 70.314667 0 0 1 70.314667 70.314667V730.794667a70.314667 70.314667 0 0 1-70.314667 70.314666zM533.504 315.733333a34.133333 34.133333 0 0 0 34.133333-34.133333v-234.496a34.133333 34.133333 0 0 0-34.133333-34.133333H299.008a34.133333 34.133333 0 0 0-34.133333 34.133333v232.106667a34.133333 34.133333 0 0 0 34.133333 34.133333h234.496m0 34.133333H299.008a70.314667 70.314667 0 0 1-70.314667-68.266666v-234.496A70.314667 70.314667 0 0 1 299.008-25.6h234.496a70.314667 70.314667 0 0 1 70.314667 70.314667v234.496A70.314667 70.314667 0 0 1 533.504 349.866667zM984.064 315.733333a34.133333 34.133333 0 0 0 34.133333-34.133333v-234.496a34.133333 34.133333 0 0 0-34.133333-34.133333H750.933333a34.133333 34.133333 0 0 0-34.133333 34.133333v232.106667a34.133333 34.133333 0 0 0 34.133333 34.133333h234.496m0 34.133333H750.933333a70.314667 70.314667 0 0 1-70.314666-70.314666V42.666667A70.314667 70.314667 0 0 1 750.933333-25.6h234.496a70.314667 70.314667 0 0 1 70.314667 70.314667v234.496a70.314667 70.314667 0 0 1-71.68 70.656z"  horiz-adv-x="1262" />

    
    <glyph glyph-name="weibiaoti--10" unicode="&#58921;" d="M168.618667 470.698667H125.610667v-40.277334h43.008v40.277334zM1079.978667 819.2H208.896a80.554667 80.554667 0 0 1-80.554667-80.554667v-307.2h220.842667a80.554667 80.554667 0 0 1 80.554667 80.554667V778.922667h648.533333a40.277333 40.277333 0 0 0 40.277333-40.277334v-700.757333a40.277333 40.277333 0 0 0-40.277333-40.277333H165.888a40.277333 40.277333 0 0 0-40.277333 40.277333V470.698667H85.333333v-432.810667a80.554667 80.554667 0 0 1 80.554667-80.554667h914.090667A80.554667 80.554667 0 0 1 1160.533333 37.888V738.645333a80.554667 80.554667 0 0 1-80.554666 80.554667zM168.618667 470.698667V738.645333a40.277333 40.277333 0 0 0 40.277333 40.277334h180.565333v-267.946667a40.277333 40.277333 0 0 0-40.277333-40.277333zM516.096 516.096h515.072v-40.277333H516.096zM516.096 342.698667h515.072v-40.277334H516.096zM516.096 169.301333h515.072v-40.277333H516.096zM214.698667 344.064H300.373333v-85.674667H214.698667zM214.698667 172.032H300.373333v-85.674667H214.698667z"  horiz-adv-x="1262" />

    
    <glyph glyph-name="weibiaoti--11" unicode="&#58922;" d="M273.066667 763.562667a65.877333 65.877333 0 1 0-65.877334-65.877334A66.218667 66.218667 0 0 0 273.066667 763.562667m0 39.936a105.813333 105.813333 0 1 1 105.813333-105.813334A105.813333 105.813333 0 0 1 273.066667 803.498667zM273.066667 464.896a65.877333 65.877333 0 1 0-65.877334-65.877333A66.218667 66.218667 0 0 0 273.066667 464.896m0 39.936a105.813333 105.813333 0 1 1 105.813333-105.813333 105.813333 105.813333 0 0 1-105.813333 105.813333zM273.066667 166.229333a65.877333 65.877333 0 1 0-65.877334-65.877333A66.218667 66.218667 0 0 0 273.066667 166.229333m0 39.936a105.813333 105.813333 0 1 1 105.813333-105.813333A105.813333 105.813333 0 0 1 273.066667 205.824zM952.32 803.498667H421.888v-39.936H952.32a65.877333 65.877333 0 0 0 0-132.096H421.888v-39.594667H952.32a105.813333 105.813333 0 0 1 0 211.626667zM952.32 504.832H421.888v-39.936H952.32a65.877333 65.877333 0 0 0 0-132.096H421.888v-39.936H952.32a105.813333 105.813333 0 0 1 0 211.626667zM952.32 205.824H421.888v-39.936H952.32a65.877333 65.877333 0 0 0 0-132.096H421.888v-39.936H952.32a105.813333 105.813333 0 0 1 0 211.626667z"  horiz-adv-x="1262" />

    
    <glyph glyph-name="weibiaoti--12" unicode="&#58923;" d="M368.981333 799.744v-853.333333H202.069333v853.333333h166.912M409.6 839.68H162.474667V-93.866667H409.6V839.68zM753.664 544.085333h-211.968v-42.325333h211.968v42.325333zM753.664 289.450667h-211.968v-42.325334h211.968v42.325334zM1009.322667 416.768h-467.626667v-42.325333h467.626667v42.325333zM1009.322667 162.133333h-467.626667v-42.325333h467.626667V162.133333zM328.704 247.125333H244.394667v-42.325333h84.309333v42.325333zM328.704 672.768H244.394667v-41.984h84.309333V672.768zM328.704 118.784H244.394667V76.8h84.309333v41.984zM1099.434667 716.458667a39.936 39.936 0 0 0 39.936-39.936v-690.517334a39.936 39.936 0 0 0-39.936-39.936H448.853333A39.936 39.936 0 0 0 409.6-13.994667V371.029333H202.069333v133.12H409.6V676.864a39.936 39.936 0 0 0 39.936 39.936h649.898667m0 39.936H448.853333a79.530667 79.530667 0 0 1-79.530666-79.530667v-132.778666H162.474667v-212.650667h206.848v-345.770667A79.530667 79.530667 0 0 1 448.853333-93.866667h650.581334a79.530667 79.530667 0 0 1 79.530666 79.530667V676.864a79.530667 79.530667 0 0 1-79.530666 79.530667z"  horiz-adv-x="1262" />

    
    <glyph glyph-name="weibiaoti--13" unicode="&#58924;" d="M1153.024 596.309333a34.133333 34.133333 0 0 0 34.133333-34.133333v-347.136a34.133333 34.133333 0 0 0-34.133333-34.133333H98.645333a34.133333 34.133333 0 0 0-34.133333 34.133333V561.493333a34.133333 34.133333 0 0 0 34.133333 34.133334h1054.72m0 34.133333H98.645333a69.973333 69.973333 0 0 1-70.314666-68.266667v-346.453333A69.973333 69.973333 0 0 1 98.645333 145.066667h1054.72a69.973333 69.973333 0 0 1 69.973334 69.973333V561.493333a69.973333 69.973333 0 0 1-69.973334 69.973334zM214.698667 556.714667H102.4v-111.957334h37.546667v74.410667h74.752v37.546667zM1149.610667 556.714667h-112.298667v-37.546667h74.752v-74.410667h37.546667V556.714667zM1149.610667 333.482667h-37.546667v-74.410667h-74.752v-37.888h112.298667v112.298667zM139.946667 333.482667H102.4v-112.298667h112.298667v37.888H139.946667v74.410667z"  horiz-adv-x="1262" />

    
    <glyph glyph-name="weibiaoti--14" unicode="&#58925;" d="M443.733333 827.733333a37.546667 37.546667 0 0 0 37.546667-37.546666v-250.538667a37.546667 37.546667 0 0 0-37.546667-37.546667H194.901333a37.546667 37.546667 0 0 0-37.546666 37.546667V789.504A37.546667 37.546667 0 0 0 194.901333 827.733333H443.733333m0 37.546667H194.901333a75.093333 75.093333 0 0 1-75.093333-75.093333v-250.538667a75.093333 75.093333 0 0 1 75.093333-75.093333H443.733333a75.093333 75.093333 0 0 1 75.093334 75.093333V789.504A75.093333 75.093333 0 0 1 443.733333 864.597333zM926.72 827.733333a37.546667 37.546667 0 0 0 37.546667-37.546666v-250.538667a37.546667 37.546667 0 0 0-37.546667-37.546667h-250.538667a37.546667 37.546667 0 0 0-37.546666 37.546667V789.504A37.546667 37.546667 0 0 0 676.181333 827.733333h250.538667m0 37.546667h-250.538667a75.093333 75.093333 0 0 1-75.093333-75.093333v-250.538667a75.093333 75.093333 0 0 1 75.093333-75.093333h250.538667a75.093333 75.093333 0 0 1 75.093333 75.093333V789.504a75.093333 75.093333 0 0 1-75.093333 75.093333zM443.733333 344.405333a37.546667 37.546667 0 0 0 37.546667-37.546666v-250.538667a37.546667 37.546667 0 0 0-37.546667-37.546667H194.901333a37.546667 37.546667 0 0 0-37.546666 37.546667v250.538667a37.546667 37.546667 0 0 0 37.546666 37.546666H443.733333m0 37.546667H194.901333a75.093333 75.093333 0 0 1-75.093333-75.093333v-250.538667a75.093333 75.093333 0 0 1 75.093333-75.093333H443.733333a75.093333 75.093333 0 0 1 75.093334 75.093333v250.538667a75.093333 75.093333 0 0 1-75.093334 75.093333zM799.744 344.405333a162.816 162.816 0 1 0-162.816-162.816 162.816 162.816 0 0 0 162.816 162.816m0 37.546667a200.362667 200.362667 0 1 1 200.362667-200.362667 200.362667 200.362667 0 0 1-200.362667 200.362667zM909.550933 43.008l26.5216 26.555733L1092.266667-86.596267l-26.5216-26.555733z"  horiz-adv-x="1262" />

    
    <glyph glyph-name="weibiaoti--15" unicode="&#58926;" d="M473.429333 749.909333A39.936 39.936 0 0 0 512 709.632v-221.184a39.936 39.936 0 0 0-39.936-39.936H247.808a39.936 39.936 0 0 0-39.936 39.936V709.632a39.936 39.936 0 0 0 39.936 40.277333h225.621333m0 39.936H247.808a79.872 79.872 0 0 1-79.872-80.213333v-221.184a79.872 79.872 0 0 1 79.872-79.872h225.621333a79.872 79.872 0 0 1 79.872 79.872V709.632a79.872 79.872 0 0 1-79.872 79.872zM473.429333 281.6A39.936 39.936 0 0 0 512 241.664v-221.184a39.936 39.936 0 0 0-39.936-39.936H247.808a39.936 39.936 0 0 0-39.936 39.936v221.184A39.936 39.936 0 0 0 247.808 281.6h225.621333m0 39.936H247.808a79.872 79.872 0 0 1-79.872-79.872v-221.184A79.872 79.872 0 0 1 247.808-59.733333h225.621333a79.872 79.872 0 0 1 79.872 79.872v221.525333a79.872 79.872 0 0 1-79.872 79.872zM942.762667 749.909333a39.936 39.936 0 0 0 39.936-39.936v-221.184a39.936 39.936 0 0 0-39.936-39.936H716.8a39.936 39.936 0 0 0-39.936 39.936V709.632A39.936 39.936 0 0 0 716.8 749.909333h225.621333m0 39.936H716.8a79.872 79.872 0 0 1-79.872-79.872v-221.184A79.872 79.872 0 0 1 716.8 408.576h225.621333A79.872 79.872 0 0 1 1024 488.448V709.632a79.872 79.872 0 0 1-79.872 79.872zM719.872 321.536h-39.936v-129.024h39.936v129.024zM719.872 150.869333h-39.936v-170.325333h39.936v170.325333zM848.554667 65.877333h-39.936v-85.333333h39.936v85.333333zM848.554667 321.536h-39.936v-212.992h39.936v212.992zM977.578667 150.869333h-39.936v-170.325333h39.936v170.325333zM977.578667 321.536h-39.936v-126.976h39.936v126.976z"  horiz-adv-x="1262" />

    
    <glyph glyph-name="weibiaoti--16" unicode="&#58927;" d="M939.008-78.165333h-682.666667a93.525333 93.525333 0 0 0-94.208 93.525333V657.066667a93.525333 93.525333 0 0 0 93.525334 95.232h240.64v-38.912H255.658667A54.613333 54.613333 0 0 1 201.045333 657.066667v-641.706667a54.613333 54.613333 0 0 1 54.613334-54.613333h682.666666a54.613333 54.613333 0 0 1 54.613334 54.613333v321.877333h38.912v-321.877333a93.525333 93.525333 0 0 0-92.842667-93.525333zM341.333333 83.285333l-36.864 7.168a709.632 709.632 0 0 0 697.685334 580.266667h29.013333v-38.912h-27.648A670.72 670.72 0 0 1 341.333333 83.285333zM817.288533 463.633067l213.367467 213.367466 27.511467-27.511466-213.333334-213.333334zM817.2544 835.4816l27.511467 27.511467 199.611733-199.611734-27.511467-27.511466z"  horiz-adv-x="1262" />

    
    <glyph glyph-name="weibiaoti--17" unicode="&#58928;" d="M643.413333 219.136a222.208 222.208 0 1 0 222.208 222.208 222.549333 222.549333 0 0 0-222.208-222.208z m0 412.330667a189.781333 189.781333 0 1 1 189.781334-189.781334 190.122667 190.122667 0 0 1-189.781334 189.781334zM976.213333 472.064h-34.133333a300.373333 300.373333 0 1 1-601.088 0h-34.133333a333.141333 333.141333 0 0 0 665.941333 0zM955.733333 546.133333h-34.133333v-138.581333h34.133333a36.181333 36.181333 0 0 1 34.133334 36.181333v66.218667a36.181333 36.181333 0 0 1-34.133334 36.181333zM335.530667 546.133333h34.133333v-138.581333h-34.133333a36.181333 36.181333 0 0 0-36.181334 36.181333v66.218667a36.181333 36.181333 0 0 0 36.181334 36.181333zM989.866667-41.984v42.325333a222.208 222.208 0 0 1-80.896 173.738667 97.962667 97.962667 0 0 1-55.637334 24.917333 163.84 163.84 0 0 1-92.842666-34.133333 197.290667 197.290667 0 0 0-112.298667-34.133333h-7.509333a198.997333 198.997333 0 0 0-114.005334 36.864 162.816 162.816 0 0 1-91.477333 31.061333 98.986667 98.986667 0 0 1-60.416-25.941333A222.208 222.208 0 0 1 296.96-1.706667v-39.936h-34.133333V-1.706667a254.293333 254.293333 0 0 0 91.818666 200.021334 130.048 130.048 0 0 0 80.554667 34.133333A193.194667 193.194667 0 0 0 546.133333 194.56a166.570667 166.570667 0 0 1 95.232-31.061333H648.533333a164.864 164.864 0 0 1 93.866667 29.013333 199.338667 199.338667 0 0 0 111.957333 38.912 127.317333 127.317333 0 0 0 74.410667-31.744A254.634667 254.634667 0 0 0 1024 0.682667v-41.984z"  horiz-adv-x="1262" />

    
    <glyph glyph-name="weibiaoti--18" unicode="&#58929;" d="M842.752 415.402667a184.32 184.32 0 1 0-184.32-184.32 184.661333 184.661333 0 0 0 184.32 184.32m0 31.061333A215.381333 215.381333 0 1 1 1058.133333 230.741333a215.381333 215.381333 0 0 1-215.381333 215.381334zM842.410667 113.664a23.893333 23.893333 0 0 0-21.504 13.312l-73.386667 148.138667 27.648 13.653333 68.266667-136.533333 63.829333 136.533333 27.989333-13.312-68.266666-147.456a23.893333 23.893333 0 0 0-21.504-13.994667zM352.938667 51.2a125.610667 125.610667 0 0 0-125.610667 115.712v2.730667c-6.826667 109.568 166.229333 164.522667 226.986667 183.296a21.845333 21.845333 0 0 1 8.192 14.336c3.754667 23.552-15.36 64.512-53.930667 115.712a233.813333 233.813333 0 0 0-41.984 200.021333c18.090667 68.266667 68.266667 149.504 208.896 160.085333H580.266667l16.384-2.389333a204.8 204.8 0 0 0 162.133333-152.917333A211.968 211.968 0 0 0 682.666667 467.285333a485.376 485.376 0 0 1-65.877334-61.44 238.933333 238.933333 0 0 1-58.026666-158.378666v-53.248a114.005333 114.005333 0 0 1 40.277333-88.746667 93.525333 93.525333 0 0 1 60.074667-21.504v-31.061333h-307.2z m223.573333 761.173333c-96.938667-7.850667-157.354667-53.930667-179.882667-136.533333a202.752 202.752 0 0 1 36.864-173.397333c45.397333-59.733333 65.536-106.837333 59.733334-139.605334a53.248 53.248 0 0 0-23.210667-36.181333l-4.096-2.048C324.608 281.6 254.634667 229.376 258.389333 172.032v-2.730667a94.549333 94.549333 0 0 1 94.549334-87.04h223.232a143.701333 143.701333 0 0 0-48.810667 110.592V247.466667a270.677333 270.677333 0 0 0 65.877333 178.858666 516.437333 516.437333 0 0 0 69.973334 65.536 181.248 181.248 0 0 1 64.853333 188.757334 170.666667 170.666667 0 0 1-137.898667 130.048z"  horiz-adv-x="1262" />

    
    <glyph glyph-name="weibiaoti--19" unicode="&#58930;" d="M574.805333 824.661333A367.616 367.616 0 1 0 207.189333 457.045333 367.957333 367.957333 0 0 0 574.805333 824.661333m0 40.277334a407.893333 407.893333 0 1 1 407.893334-407.893334A407.893333 407.893333 0 0 1 574.805333 864.938667zM832.375467 171.451733l28.501333 28.501334 265.489067-265.5232-28.501334-28.4672z"  horiz-adv-x="1262" />

    
    <glyph glyph-name="weibiaoti--20" unicode="&#58931;" d="M1188.0448-90.658133H74.888533a36.864 36.864 0 0 0-36.829866 36.829866V821.828267a36.864 36.864 0 0 0 36.829866 36.829866h1113.156267a36.864 36.864 0 0 0 36.829867-36.829866v-875.6224a36.864 36.864 0 0 0-36.829867-36.864zM74.888533 832.068267a10.274133 10.274133 0 0 1-10.274133-10.274134v-875.6224c0-5.666133 4.608-10.274133 10.274133-10.274133h1113.156267a10.274133 10.274133 0 0 1 10.274133 10.274133V821.828267a10.274133 10.274133 0 0 1-10.274133 10.274133H74.888533zM219.409067 129.365333a13.312 13.312 0 0 0-12.561067 17.578667c2.2528 6.587733 56.149333 161.245867 148.138667 184.149333 36.522667 9.079467 73.250133-3.3792 109.1584-37.034666 15.735467-14.7456 30.276267-28.910933 43.793066-42.154667 52.565333-51.268267 90.5216-88.405333 120.32-81.749333 28.842667 6.3488 59.904 55.671467 97.792 155.2384 49.5616 130.218667 122.026667 163.669333 174.114134 168.823466 87.074133 8.567467 188.0064-56.7296 256.989866-166.468266a13.312 13.312 0 1 0-22.493866-14.165334c-63.658667 101.307733-154.692267 161.826133-231.867734 154.180267-63.965867-6.314667-116.497067-58.845867-151.893333-151.8592-43.076267-113.152-76.936533-162.9184-116.906667-171.7248-43.758933-9.728-86.084267 31.607467-144.5888 88.6784a2795.178667 2795.178667 0 0 1-43.4176 41.7792c-29.320533 27.477333-56.968533 37.512533-84.5824 30.651733-78.1312-19.456-128.9216-165.4784-129.4336-166.946133a13.312 13.312 0 0 0-12.561066-8.977067zM416.938667 504.046933c-54.6816 0-99.191467 44.475733-99.191467 99.191467s44.475733 99.191467 99.191467 99.191467 99.191467-44.509867 99.191466-99.191467-44.509867-99.191467-99.191466-99.191467z m0 171.758934a72.704 72.704 0 0 1-72.6016-72.6016c0-40.0384 32.5632-72.6016 72.6016-72.6016s72.6016 32.5632 72.6016 72.6016a72.704 72.704 0 0 1-72.6016 72.6016z"  horiz-adv-x="1262" />

    
    <glyph glyph-name="weibiaoti--21" unicode="&#58932;" d="M1028.608-57.309867H150.7328A31.744 31.744 0 0 0 119.022933-25.6V693.589333a31.744 31.744 0 0 0 31.709867 31.709867h877.909333a31.744 31.744 0 0 0 31.709867-31.709867v-719.223466a31.778133 31.778133 0 0 0-31.744-31.675734zM150.7328 702.429867a8.874667 8.874667 0 0 1-8.840533-8.840534v-719.223466a8.874667 8.874667 0 0 1 8.840533-8.840534h877.909333a8.874667 8.874667 0 0 1 8.840534 8.840534V693.589333a8.874667 8.874667 0 0 1-8.840534 8.840534H150.7328zM1137.698133 42.7008h-88.814933v22.869333h88.814933a8.874667 8.874667 0 0 1 8.840534 8.840534V793.634133a8.874667 8.874667 0 0 1-8.840534 8.840534H259.7888a8.874667 8.874667 0 0 1-8.840533-8.840534v-84.957866h-22.869334V793.634133a31.744 31.744 0 0 0 31.709867 31.709867h877.909333a31.744 31.744 0 0 0 31.709867-31.709867V74.410667a31.744 31.744 0 0 0-31.709867-31.709867zM205.858133 130.798933a11.400533 11.400533 0 0 0-10.820266 15.121067c1.9456 5.666133 48.298667 138.752 127.488 158.481067 31.470933 7.816533 63.044267-2.901333 93.934933-31.880534 13.550933-12.6976 26.043733-24.8832 37.717333-36.283733 45.226667-44.1344 77.9264-76.014933 103.560534-70.3488 24.814933 5.461333 51.541333 47.9232 84.1728 133.597867 42.632533 112.0256 104.994133 140.834133 149.8112 145.271466 75.1616 7.406933 161.792-48.810667 221.149866-143.2576a11.434667 11.434667 0 1 0-19.3536-12.1856c-54.784 87.176533-133.2224 139.264-199.543466 132.676267-55.057067-5.461333-100.2496-50.619733-130.696534-130.6624-37.0688-97.3824-66.218667-140.219733-100.590933-147.797333-37.717333-8.362667-74.069333 27.170133-124.450133 76.322133-11.5712 11.264-23.9616 23.381333-37.376 35.9424-25.224533 23.6544-49.0496 32.290133-72.738134 26.385067-67.140267-16.6912-110.967467-142.404267-111.377066-143.701334a11.605333 11.605333 0 0 0-10.888534-7.68zM375.842133 453.2224c-47.069867 0-85.333333 38.2976-85.333333 85.333333s38.2976 85.333333 85.333333 85.333334 85.333333-38.2976 85.333334-85.333334-38.263467-85.333333-85.333334-85.333333z m0 147.831467c-34.440533 0-62.464-28.023467-62.464-62.464s28.023467-62.464 62.464-62.464 62.464 28.023467 62.464 62.464-27.989333 62.464-62.464 62.464z"  horiz-adv-x="1262" />

    
    <glyph glyph-name="weibiaoti--22" unicode="&#58933;" d="M1171.285333-86.596267H117.589333a37.956267 37.956267 0 0 0-37.922133 37.922134v299.861333l16.7936-3.959467c11.6736-2.7648 23.278933-4.130133 34.474667-4.130133 82.978133 0 150.459733 67.4816 150.459733 150.459733s-67.4816 150.459733-150.459733 150.459734c-11.195733 0-22.801067-1.399467-34.474667-4.130134l-16.7936-3.959466V811.793067c0 20.923733 17.032533 37.922133 37.922133 37.922133h1053.696c20.8896 0 37.922133-17.032533 37.922134-37.922133v-272.725334l-15.940267 2.696534a149.504 149.504 0 0 1-25.088 2.286933c-82.978133 0-150.459733-67.4816-150.459733-150.459733s67.4816-150.459733 150.459733-150.459734c7.7824 0 16.008533 0.750933 25.088 2.286934l15.940267 2.6624v-296.721067c0-20.923733-17.032533-37.956267-37.922134-37.956267z m-1064.277333 304.059734v-266.103467c0-5.8368 4.744533-10.581333 10.581333-10.581333h1053.696a10.581333 10.581333 0 0 1 10.581334 10.581333v265.0112c-4.676267-0.4096-9.216-0.6144-13.687467-0.6144-98.030933 0-177.800533 79.7696-177.800533 177.800533s79.7696 177.800533 177.800533 177.800534c4.471467 0 9.0112-0.2048 13.687467-0.6144V811.793067a10.581333 10.581333 0 0 1-10.581334 10.581333H117.589333a10.581333 10.581333 0 0 1-10.581333-10.581333V569.685333c108.578133 15.1552 201.762133-70.212267 201.762133-176.093866a178.005333 178.005333 0 0 0-201.762133-176.128zM454.3488 645.768533l185.787733-196.027733-19.8656-18.8416-185.787733 196.027733zM830.941867 645.5296l20.206933-18.466133-178.961067-196.061867-20.206933 18.432zM444.381867 451.6864H841.045333v-27.3408H444.381867zM444.381867 318.327467H841.045333v-27.3408H444.381867zM629.0432 437.998933h27.3408v-283.818666h-27.3408z"  horiz-adv-x="1262" />

    
    <glyph glyph-name="tubiao-29" unicode="&#58934;" d="M546.133333 69.632H163.498667V834.901333h765.269333V418.133333h-68.266667V766.634667H231.765333v-628.736H546.133333v-68.266667zM136.533333 861.866667h107.178667v-107.178667H136.533333zM136.533333 149.845333h107.178667V42.666667H136.533333zM848.554667 861.866667H955.733333v-107.178667h-107.178666zM1006.933333 298.666667v-307.2h-307.2v307.2h307.2m68.266667 68.266666h-443.733333v-443.733333h443.733333v443.733333zM614.4 384h68.266667v-68.266667h-68.266667zM614.4-25.6h68.266667v-68.266667h-68.266667zM1024-25.6h68.266667v-68.266667h-68.266667zM1024 384h68.266667v-68.266667h-68.266667z"  horiz-adv-x="1262" />

    
    <glyph glyph-name="tubiao-30" unicode="&#58935;" d="M1092.266667 725.333333H136.533333v-68.266666h955.733334V725.333333zM341.333333 861.866667H273.066667v-955.733334h68.266666V861.866667zM648.533333 861.866667h-68.266666v-955.733334h68.266666V861.866667zM955.733333 861.866667h-68.266666v-955.733334h68.266666V861.866667zM1092.266667 435.2H136.533333v-68.266667h955.733334v68.266667zM1092.266667 145.066667H136.533333v-68.266667h955.733334v68.266667z"  horiz-adv-x="1262" />

    
    <glyph glyph-name="tubiao-31" unicode="&#58936;" d="M1024 657.066667v-170.666667H443.733333v-443.733333H273.066667V657.066667h750.933333m68.266667 68.266666H204.8v-750.933333h307.2V418.133333h580.266667V725.333333zM614.4 588.8h-68.266667v-136.533333h68.266667V588.8zM477.866667 418.133333h-136.533334v-68.266666h136.533334v68.266666zM477.866667 281.6h-136.533334v-68.266667h136.533334v68.266667zM477.866667 145.066667h-136.533334v-68.266667h136.533334v68.266667zM785.066667 588.8h-68.266667v-136.533333h68.266667V588.8zM955.733333 588.8h-68.266666v-136.533333h68.266666V588.8z"  horiz-adv-x="1262" />

    
    <glyph glyph-name="tubiao-32" unicode="&#58937;" d="M989.866667 759.466667v-750.933334H238.933333V759.466667h750.933334m68.266666 68.266666H170.666667v-887.466666h887.466666V827.733333zM136.533333 861.866667h136.533334v-136.533334H136.533333zM136.533333 42.666667h136.533334v-136.533334H136.533333zM955.733333 42.666667h136.533334v-136.533334h-136.533334zM955.733333 861.866667h136.533334v-136.533334h-136.533334zM341.333333 657.066667h477.866667v-204.8H341.333333zM546.133333 657.066667v-477.866667h-204.8V657.066667zM682.666667 315.733333h170.666666v-170.666666h-170.666666z"  horiz-adv-x="1262" />

    
    <glyph glyph-name="tubiao-33" unicode="&#58938;" d="M744.106667 162.816a167.936 167.936 0 0 0-161.450667 214.698667l65.536-18.773334a99.669333 99.669333 0 0 1 166.229333-98.304l208.213334 208.213334a100.010667 100.010667 0 0 1 0 141.312 102.4 102.4 0 0 1-140.970667 0l-136.533333-136.533334L695.978667 520.533333l136.533333 136.533334a167.936 167.936 0 1 0 238.933333-238.933334l-208.213333-204.8a167.594667 167.594667 0 0 0-119.125333-50.517333zM378.538667-7.168a167.936 167.936 0 0 0-118.784 286.72l208.213333 208.213333a167.936 167.936 0 0 0 265.898667-200.362666l-59.733334 34.133333a99.669333 99.669333 0 0 1-157.696 119.125333L307.2 231.082667a99.669333 99.669333 0 1 1 140.970667-140.970667L580.266667 222.208l48.128-48.128L497.322667 42.666667a167.594667 167.594667 0 0 0-118.784-49.834667z"  horiz-adv-x="1262" />

    
    <glyph glyph-name="tubiao-34" unicode="&#58939;" d="M1024 827.733333a68.266667 68.266667 0 0 0 68.266667-68.266666v-750.933334a68.266667 68.266667 0 0 0-68.266667-68.266666H238.933333a68.266667 68.266667 0 0 0-68.266666 68.266666V759.466667a68.266667 68.266667 0 0 0 68.266666 68.266666h785.066667m0 68.266667H238.933333a136.533333 136.533333 0 0 1-136.533333-136.533333v-750.933334a136.533333 136.533333 0 0 1 136.533333-136.533333h785.066667a136.533333 136.533333 0 0 1 136.533333 136.533333V759.466667a136.533333 136.533333 0 0 1-136.533333 136.533333zM887.466667 827.733333v-273.066666a68.266667 68.266667 0 0 0-68.266667-68.266667H443.733333a68.266667 68.266667 0 0 0-68.266666 68.266667V827.733333h512m68.266666 68.266667H307.2v-341.333333a136.533333 136.533333 0 0 1 136.533333-136.533334h375.466667a136.533333 136.533333 0 0 1 136.533333 136.533334V896zM819.2 759.466667h-68.266667v-204.8h68.266667V759.466667z"  horiz-adv-x="1262" />

    
    <glyph glyph-name="tubiao-35" unicode="&#58940;" d="M648.533333 861.866667h-68.266666v-955.733334h68.266666V861.866667zM273.066667 725.333333h682.666666v-273.066666H273.066667zM170.666667 315.733333h887.466666v-273.066666H170.666667z"  horiz-adv-x="1262" />

    
    <glyph glyph-name="tubiao-36" unicode="&#58941;" d="M612.969737-128h-19.070169A476.75424 476.75424 0 0 0 136.215497 367.143332a431.462587 431.462587 0 0 0 153.242434 318.063186 494.802793 494.802793 0 0 0 340.538743 110.675092l-2.72431-68.107749a428.738277 428.738277 0 0 1-292.863318-94.669771A364.035916 364.035916 0 0 1 204.323246 364.419022a408.646492 408.646492 0 0 1 817.292983-31.670103l68.107748-2.72431a476.75424 476.75424 0 0 0-476.75424-458.024609zM596.283339 894.297306l203.301629-117.485866-203.301629-117.485866V894.297306z"  horiz-adv-x="1259" />

    
    <glyph glyph-name="tubiao-37" unicode="&#58942;" d="M647.023612-128a476.75424 476.75424 0 0 0-476.754241 476.75424h68.107749a408.646492 408.646492 0 0 1 817.292983 0c0 216.242102-175.717991 379.36016-408.646491 379.36016v68.107748c272.430994 0 476.75424-192.40439 476.75424-447.467908a476.75424 476.75424 0 0 0-476.75424-476.75424zM663.71001 894.297306L460.40838 776.81144l203.30163-117.485866V894.297306z"  horiz-adv-x="1259" />

    
    <glyph glyph-name="tubiao-38" unicode="&#58943;" d="M605.866667 264.533333L156.672 554.666667l449.194667 290.133333L1055.061333 554.666667zM282.624 554.666667l323.242667-208.896L929.109333 554.666667l-323.242666 208.896zM605.866667 75.434667L234.154667 303.786667l35.84 58.026666 335.872-206.165333 335.872 206.165333 35.84-58.026666-371.712-228.352zM605.866667-95.232L234.154667 133.12l35.84 58.026667 335.872-206.165334 335.872 206.165334 35.84-58.026667-371.712-228.352z"  horiz-adv-x="1262" />

    
    <glyph glyph-name="tubiao-39" unicode="&#58944;" d="M494.933333 145.066667A358.4 358.4 0 1 0 853.333333 503.466667 358.741333 358.741333 0 0 0 494.933333 145.066667z m0 648.533333a290.133333 290.133333 0 1 1 290.133334-290.133333A290.474667 290.474667 0 0 1 494.933333 793.6zM745.130667 321.536a29.696 29.696 0 0 1-22.869334-10.581333l-5.802666-6.826667a29.696 29.696 0 0 1 3.754666-41.642667l321.877334-267.605333a29.696 29.696 0 0 1 41.642666 3.754667l5.802667 6.826666a29.696 29.696 0 0 1-3.754667 41.642667L764.245333 315.733333a29.354667 29.354667 0 0 1-18.773333 6.826667z"  horiz-adv-x="1262" />

    
    <glyph glyph-name="tubiao-40" unicode="&#58945;" d="M951.978667 373.76v-389.12h-614.4V373.76h614.4m17.066666 68.266667h-648.533333a51.2 51.2 0 0 1-51.2-51.2v-423.253334a51.2 51.2 0 0 1 51.2-51.2h648.533333a51.2 51.2 0 0 1 51.2 51.2V390.826667a51.2 51.2 0 0 1-51.2 51.2zM951.978667 469.333333h-68.266667c0 178.858667-107.178667 324.266667-238.933333 324.266667s-238.933333-145.408-238.933334-324.266667h-68.266666c0 216.405333 136.533333 392.533333 307.2 392.533334s307.2-176.128 307.2-392.533334zM644.778667 247.466667a34.133333 34.133333 0 0 1-34.133334-34.133334v-102.4a34.133333 34.133333 0 0 1 68.266667 0v102.4a34.133333 34.133333 0 0 1-34.133333 34.133334zM713.045333 281.6h-136.533333a34.133333 34.133333 0 0 1 0-68.266667h136.533333a34.133333 34.133333 0 0 1 0 68.266667z"  horiz-adv-x="1262" />

    
    <glyph glyph-name="tubiao-41" unicode="&#58946;" d="M1126.4 810.666667H153.6a51.2 51.2 0 0 1 0-102.4H1126.4a51.2 51.2 0 0 1 0 102.4zM1143.466667 443.733333h-989.866667a51.2 51.2 0 0 1 0-102.4h989.866667a51.2 51.2 0 0 1 0 102.4zM1143.466667 76.79999999999995h-989.866667a51.2 51.2 0 0 1 0-102.4h989.866667a51.2 51.2 0 0 1 0 102.4z"  horiz-adv-x="1262" />

    
    <glyph glyph-name="tubiao-42" unicode="&#58947;" d="M1058.133333 790.869333H170.666667v-74.069333h887.466666V790.869333zM170.666667 605.866667h197.290666v-628.736H170.666667zM989.866667 537.6v-492.202667H600.405333V537.6H989.866667m68.266666 68.266667H532.138667v-628.736H1058.133333V605.866667z"  horiz-adv-x="1262" />

    
    <glyph glyph-name="tubiao-43" unicode="&#58948;" d="M477.866667 725.333333v-238.933333H238.933333V725.333333h238.933334m0 68.266667H238.933333a68.266667 68.266667 0 0 1-68.266666-68.266667v-238.933333a68.266667 68.266667 0 0 1 68.266666-68.266667h238.933334a68.266667 68.266667 0 0 1 68.266666 68.266667V725.333333a68.266667 68.266667 0 0 1-68.266666 68.266667zM477.866667 247.46666700000003v-238.933334H238.933333v238.933334h238.933334m0 68.266666H238.933333a68.266667 68.266667 0 0 1-68.266666-68.266666v-238.933334a68.266667 68.266667 0 0 1 68.266666-68.266666h238.933334a68.266667 68.266667 0 0 1 68.266666 68.266666v238.933334a68.266667 68.266667 0 0 1-68.266666 68.266666zM989.866667 725.333333v-238.933333h-238.933334V725.333333h238.933334m0 68.266667h-238.933334a68.266667 68.266667 0 0 1-68.266666-68.266667v-238.933333a68.266667 68.266667 0 0 1 68.266666-68.266667h238.933334a68.266667 68.266667 0 0 1 68.266666 68.266667V725.333333a68.266667 68.266667 0 0 1-68.266666 68.266667zM989.866667 247.46666700000003v-238.933334h-238.933334v238.933334h238.933334m0 68.266666h-238.933334a68.266667 68.266667 0 0 1-68.266666-68.266666v-238.933334a68.266667 68.266667 0 0 1 68.266666-68.266666h238.933334a68.266667 68.266667 0 0 1 68.266666 68.266666v238.933334a68.266667 68.266667 0 0 1-68.266666 68.266666z"  horiz-adv-x="1262" />

    
    <glyph glyph-name="tubiao-44" unicode="&#58949;" d="M950.954667 234.49599999999998h-286.037334a170.666667 170.666667 0 0 0-170.666666 170.666667V691.2a170.666667 170.666667 0 0 0 170.666666 170.666667h286.037334a170.666667 170.666667 0 0 0 170.666666-170.666667v-286.037333a170.666667 170.666667 0 0 0-170.666666-170.666667zM664.917333 793.6a102.4 102.4 0 0 1-102.4-102.4v-286.037333a102.4 102.4 0 0 1 102.4-102.4h286.037334a102.4 102.4 0 0 1 102.4 102.4V691.2a102.4 102.4 0 0 1-102.4 102.4zM598.016-59.733333000000016H311.978667a170.666667 170.666667 0 0 0-170.666667 170.666666v286.037334a170.666667 170.666667 0 0 0 170.666667 170.666666h286.037333a170.666667 170.666667 0 0 0 170.666667-170.666666V110.93333299999995a170.666667 170.666667 0 0 0-170.666667-170.666666zM311.978667 499.370667a102.4 102.4 0 0 1-102.4-102.4V110.93333299999995a102.4 102.4 0 0 1 102.4-102.4h286.037333a102.4 102.4 0 0 1 102.4 102.4v286.037334a102.4 102.4 0 0 1-102.4 102.4z"  horiz-adv-x="1262" />

    
    <glyph glyph-name="tubiao-45" unicode="&#58950;" d="M644.9152-81.169067c-78.472533 0-148.445867 44.066133-170.154667 107.144534-0.785067 2.184533-3.925333 4.437333-8.430933 4.437333H262.2464c-29.2864 0-54.203733 16.2816-61.986133 40.5504-6.314667 19.3536 0.785067 40.516267 18.568533 55.1936l90.4192 74.6496c6.485333 5.290667 10.0352 12.117333 10.0352 19.319467v277.265066c0 113.220267 85.435733 214.459733 213.333333 253.815467 11.127467 44.168533 57.856 76.629333 112.162134 76.629333 54.340267 0 101.0688-32.4608 112.196266-76.663466a336.110933 336.110933 0 0 0 119.6032-65.365334c60.416-51.8144 93.696-121.787733 93.696-197.051733v-268.731733c0-7.133867 3.549867-13.994667 10.0352-19.319467l91.5456-75.605333c21.6064-17.851733 25.941333-45.909333 10.513067-68.1984-11.434667-16.349867-33.0752-26.453333-56.490667-26.453334h-202.376533c-4.5056 0-7.645867-2.2528-8.430933-4.5056-21.8112-63.0784-91.784533-107.1104-170.154667-107.1104zM644.778667 804.317867c-45.841067 0-84.753067-27.579733-90.453334-64.2048l-1.160533-7.406934-7.202133-2.082133c-121.514667-34.850133-203.1616-128.6144-203.1616-233.2672v-277.265067c0-14.199467-6.792533-27.886933-18.6368-37.512533L233.813333 107.963733c-10.171733-8.362667-14.4384-19.797333-11.1616-29.7984 4.573867-14.301867 20.8896-24.2688 39.6288-24.2688h204.0832c14.062933 0 26.350933-8.123733 30.6176-20.206933 18.5344-53.828267 79.36-91.374933 147.968-91.374933 68.5056 0 129.365333 37.546667 147.968 91.306666 4.266667 12.151467 16.554667 20.2752 30.6176 20.2752h202.376534c15.633067 0 30.242133 6.417067 37.205333 16.384 8.430933 12.1856 6.007467 26.589867-6.212267 36.6592l-91.5456 75.605334c-11.9808 9.898667-18.568533 23.176533-18.568533 37.444266v268.731734c0 68.3008-30.344533 131.925333-85.469867 179.2a314.0608 314.0608 0 0 1-117.691733 62.702933l-7.168 2.082133-1.160533 7.406934c-5.768533 36.590933-44.6464 64.2048-90.5216 64.2048z"  horiz-adv-x="1262" />

    
    <glyph glyph-name="tubiao-46" unicode="&#58951;" d="M978.5344-67.95946700000002H257.501867a27.716267 27.716267 0 0 0-27.682134 27.682134V834.184533c0 15.2576 12.424533 27.682133 27.682134 27.682134h587.3664l161.3824-163.84v-184.285867a11.434667 11.434667 0 0 0-22.869334 0V688.674133l-148.104533 150.357334H257.501867a4.846933 4.846933 0 0 1-4.846934-4.846934v-874.427733c0-2.6624 2.1504-4.846933 4.846934-4.846933h721.032533a4.881067 4.881067 0 0 1 4.846933 4.846933v79.906133a11.434667 11.434667 0 0 0 22.869334 0v-79.906133a27.7504 27.7504 0 0 0-27.716267-27.716267zM334.5408 183.671467h301.7728v-22.8352H334.5408zM334.5408 374.06719999999996h301.7728v-22.8352H334.5408zM334.5408 562.5856h113.288533v-22.8352H334.5408zM994.816 668.5013329999999H812.032v181.930667h22.8352v-159.095467h159.9488zM892.1088 180.18986700000005a162.133333 162.133333 0 0 0-57.2416 10.4448 161.621333 161.621333 0 0 0-90.965333 85.128533 161.792 161.792 0 0 0-4.130134 124.5184 163.566933 163.566933 0 0 0 152.405334 105.540267 162.986667 162.986667 0 0 0 152.337066-220.125867 163.601067 163.601067 0 0 0-152.405333-105.506133z m0.068267 302.830933a140.663467 140.663467 0 0 1-131.037867-90.7264 139.127467 139.127467 0 0 1 3.549867-107.042133 139.093333 139.093333 0 0 1 78.199466-73.181867c15.872-5.973333 32.426667-8.977067 49.220267-8.977067a140.663467 140.663467 0 0 1 131.037867 90.7264 140.151467 140.151467 0 0 1-81.749334 180.258134 140.731733 140.731733 0 0 1-49.220266 8.942933zM978.773333 220.39893300000006l99.874134-151.381333-19.114667-12.5952-99.84 151.415467z"  horiz-adv-x="1262" />

    
    <glyph glyph-name="tubiao_fuzhi-" unicode="&#58952;" d="M606.1056-79.4624C350.549333-79.4624 142.6432 128.443733 142.6432 384S350.549333 847.4624 606.1056 847.4624 1069.602133 639.556267 1069.602133 384s-207.906133-463.4624-463.496533-463.4624z m0 904.567467C362.9056 825.105067 165.000533 627.234133 165.000533 384s197.870933-441.105067 441.105067-441.105067S1047.2448 140.765867 1047.2448 384 849.339733 825.105067 606.1056 825.105067z"  horiz-adv-x="1262" />

    
    <glyph glyph-name="tubiao_fuzhi-1" unicode="&#58953;" d="M651.639467-91.818667c-255.556267 0-463.4624 207.906133-463.4624 463.4624S396.0832 835.106133 651.639467 835.106133s463.4624-207.906133 463.4624-463.4624S907.195733-91.818667 651.639467-91.818667z m0 904.567467c-243.234133 0-441.105067-197.870933-441.105067-441.105067s197.870933-441.105067 441.105067-441.105066 441.105067 197.870933 441.105066 441.105066S894.8736 812.7488 651.639467 812.7488zM402.773333 462.472533c0 4.5056 1.536 8.2944 4.608 11.3664a15.428267 15.428267 0 0 0 11.3664 4.608c4.573867 0 8.465067-1.501867 11.605334-4.539733s4.744533-6.826667 4.744533-11.400533a14.711467 14.711467 0 0 0-4.744533-11.229867 16.213333 16.213333 0 0 0-11.605334-4.471467 15.530667 15.530667 0 0 0-11.434666 4.471467 14.984533 14.984533 0 0 0-4.539734 11.195733z m3.003734-194.2528v143.633067h25.463466v-143.633067h-25.463466zM575.863467 274.705067c-10.990933-6.587733-24.234667-9.864533-39.7312-9.864534-20.7872 0-37.4784 6.656-50.141867 20.002134-12.629333 13.346133-18.944 30.583467-18.944 51.8144 0 23.552 6.826667 42.530133 20.445867 56.9344 13.6192 14.404267 31.880533 21.640533 54.749866 21.640533 13.141333 0 24.405333-2.3552 33.757867-7.031467v-25.1904a55.671467 55.671467 0 0 1-33.757867 11.1616c-14.5408 0-26.385067-5.0176-35.5328-15.121066s-13.687467-23.517867-13.687466-40.311467c0-16.554667 4.3008-29.4912 12.9024-38.843733 8.6016-9.352533 20.241067-14.0288 34.850133-14.0288 12.3904 0 24.064 4.061867 35.054933 12.1856v-23.3472zM600.439467 338.500267c0 23.688533 6.621867 42.427733 19.8656 56.149333 13.243733 13.7216 31.197867 20.5824 53.896533 20.5824 21.572267 0 38.468267-6.621867 50.688-19.831467 12.253867-13.2096 18.397867-31.4368 18.397867-54.715733 0-22.698667-6.5536-40.994133-19.626667-54.920533s-30.583467-20.8896-52.565333-20.8896c-21.469867 0-38.6048 6.724267-51.438934 20.241066-12.834133 13.5168-19.217067 31.266133-19.217066 53.384534z m25.941333 0.750933c0-16.520533 4.1984-29.559467 12.561067-39.1168 8.328533-9.489067 19.5584-14.267733 33.655466-14.267733 14.574933 0 25.634133 4.642133 33.28 13.960533 7.611733 9.250133 11.400533 22.664533 11.400534 40.072533 0 17.476267-3.7888 30.890667-11.400534 40.2432-7.645867 9.352533-18.705067 14.0288-33.28 14.0288-14.267733 0-25.531733-4.881067-33.792-14.677333-8.2944-9.762133-12.424533-23.210667-12.424533-40.2432zM900.5056 268.219733h-25.326933v81.7152c0 29.4912-10.752 44.2368-32.324267 44.2368-11.1616 0-20.343467-4.164267-27.511467-12.458666-7.202133-8.2944-10.786133-18.807467-10.786133-31.5392v-81.92h-25.429333v143.633066h25.429333v-23.7568h0.546133c10.786133 18.090667 26.5216 27.136 47.138134 27.136 15.7696 0 27.7504-5.051733 35.976533-15.121066s12.322133-24.7808 12.322133-44.100267v-87.825067z"  horiz-adv-x="1262" />

    
    <glyph glyph-name="tubiao-47" unicode="&#58954;" d="M645.12 387.7888h-221.184c-121.9584 0-221.184 99.2256-221.184 221.184S301.9776 830.122667 423.936 830.122667a221.3888 221.3888 0 0 0 221.149867-221.149867l-0.1024-4.608 0.136533-216.576zM423.936 807.458133A198.7584 198.7584 0 0 1 225.416533 608.938667a198.7584 198.7584 0 0 1 198.519467-198.519467h198.519467l-0.1024 194.184533 0.1024 4.334934a198.7584 198.7584 0 0 1-198.519467 198.519466zM874.052267 387.7888h-221.184l0.1024 217.1904a221.422933 221.422933 0 0 0 221.047466 225.143467 221.422933 221.422933 0 0 0 221.184-221.149867 221.354667 221.354667 0 0 0-221.149866-221.184z m-198.519467 22.6304h198.519467a198.7584 198.7584 0 0 1 198.519466 198.519467 198.7584 198.7584 0 0 1-198.519466 198.519466 198.7584 198.7584 0 0 1-198.519467-198.519466l0.1024-3.959467-0.1024-194.56zM421.512533-62.02026699999999c-121.9584 0-221.149867 99.2256-221.149866 221.184s99.2256 221.149867 221.184 221.149867h221.184l-0.136534-217.224533 0.1024-3.959467a221.422933 221.422933 0 0 0-221.184-221.149867z m0 419.669334a198.7584 198.7584 0 0 1-198.519466-198.519467 198.7584 198.7584 0 0 1 198.519466-198.519467 198.7584 198.7584 0 0 1 198.519467 198.519467l-0.1024 3.959467 0.1024 194.525866h-198.519467zM871.6288-62.02026699999999a221.422933 221.422933 0 0 0-221.0816 224.904534l0.034133 1.024-0.136533 216.405333h221.184c121.9584 0 221.184-99.191467 221.184-221.149867s-99.2256-221.184-221.184-221.184z m-198.485333 419.669334l0.1024-194.082134-0.034134-1.501866-0.068266-2.935467c0-109.4656 89.053867-198.519467 198.519466-198.519467s198.519467 89.053867 198.519467 198.519467a198.7584 198.7584 0 0 1-198.519467 198.519467h-198.519466z"  horiz-adv-x="1262" />

    
    <glyph glyph-name="tubiao-48" unicode="&#58955;" d="M997.614933-72.157867H198.724267a30.242133 30.242133 0 0 0-21.1968 8.772267 29.7984 29.7984 0 0 0-8.772267 21.1968V794.760533c0 7.8848 3.208533 15.598933 8.772267 21.1968a30.242133 30.242133 0 0 0 21.1968 8.772267h798.890666c7.9872 0 15.530667-3.106133 21.1968-8.772267 5.563733-5.563733 8.772267-13.312 8.772267-21.1968v-836.949333a29.866667 29.866667 0 0 0-29.969067-29.969067zM198.724267 802.816a8.123733 8.123733 0 0 1-8.0896-8.055467v-836.949333a8.0896 8.0896 0 0 1 8.0896-8.0896h798.890666a8.055467 8.055467 0 0 1 8.055467 8.055467V794.760533a7.9872 7.9872 0 0 1-8.055467 8.055467H198.724267zM407.927467 22.9376H331.844267a30.037333 30.037333 0 0 0-29.969067 29.969067v76.117333c0 7.8848 3.208533 15.598933 8.772267 21.1968a29.7984 29.7984 0 0 0 21.1968 8.772267h76.0832a29.934933 29.934933 0 0 0 29.969066-29.969067v-76.117333a29.969067 29.969067 0 0 0-29.969066-29.969067z m-76.0832 114.141867a8.123733 8.123733 0 0 1-8.055467-8.0896V52.906667c0-4.437333 3.618133-8.055467 8.055467-8.055467h76.0832c4.437333 0 8.055467 3.618133 8.055466 8.055467v76.117333a8.123733 8.123733 0 0 1-8.055466 8.0896H331.844267zM399.872 60.996267H339.933867v59.972266h59.972266v-59.972266z m-38.024533 21.9136h16.145066v16.145066h-16.145066v-16.145066zM636.2112 22.9376H560.128a30.037333 30.037333 0 0 0-29.969067 29.969067v76.117333c0 7.8848 3.208533 15.598933 8.772267 21.1968a29.7984 29.7984 0 0 0 21.1968 8.772267h76.0832a29.934933 29.934933 0 0 0 29.969067-29.969067v-76.117333a30.037333 30.037333 0 0 0-29.969067-29.969067z m-76.117333 114.141867a8.123733 8.123733 0 0 1-8.055467-8.0896V52.906667c0-4.437333 3.618133-8.055467 8.055467-8.055467h76.0832c4.437333 0 8.055467 3.618133 8.055466 8.055467v76.117333a8.123733 8.123733 0 0 1-8.055466 8.0896h-76.0832zM628.1216 60.996267h-59.972267v59.972266h59.972267v-59.972266z m-38.024533 21.9136h16.145066v16.145066h-16.145066v-16.145066zM864.4608 22.9376h-76.0832a30.037333 30.037333 0 0 0-29.969067 29.969067v76.117333c0 7.8848 3.208533 15.598933 8.772267 21.1968a29.7984 29.7984 0 0 0 21.1968 8.772267h76.0832c7.9872 0 15.530667-3.106133 21.1968-8.772267 5.597867-5.597867 8.772267-13.312 8.772267-21.1968v-76.117333a30.037333 30.037333 0 0 0-29.969067-29.969067z m-76.0832 114.141867a8.123733 8.123733 0 0 1-8.055467-8.0896V52.906667c0-4.437333 3.618133-8.055467 8.055467-8.055467h76.0832c4.437333 0 8.055467 3.618133 8.055467 8.055467v76.117333a7.9872 7.9872 0 0 1-8.055467 8.055467h-76.0832zM856.3712 60.996267h-59.972267v59.972266h59.972267v-59.972266z m-38.024533 21.9136h16.145066v16.145066h-16.145066v-16.145066z"  horiz-adv-x="1262" />

    
    <glyph glyph-name="xiugaitubiao-" unicode="&#58956;" d="M1188.9664 98.269867H103.765333c-19.5584 0-35.498667 15.940267-35.498666 35.498666V580.539733c0 19.5584 15.940267 35.498667 35.498666 35.498667h1085.201067c19.5584 0 35.498667-15.940267 35.498667-35.498667v-446.805333a35.498667 35.498667 0 0 0-35.498667-35.464533zM103.765333 590.4384a9.898667 9.898667 0 0 1-9.898666-9.898667v-446.805333c0-5.461333 4.437333-9.898667 9.898666-9.898667h1085.201067c5.461333 0 9.898667 4.437333 9.898667 9.898667V580.539733a9.898667 9.898667 0 0 1-9.898667 9.898667H103.765333zM221.866667 459.537067h848.9984v-204.8H221.866667z"  horiz-adv-x="1262" />

    
    <glyph glyph-name="-" unicode="&#58957;" d="M631.466667-83.968A467.968 467.968 0 1 0 1099.434667 384 468.309333 468.309333 0 0 0 631.466667-83.968z m0 902.485333A434.517333 434.517333 0 1 1 1065.984 384 435.2 435.2 0 0 1 631.466667 818.517333zM569.002667 322.56v102.4 30.378667a93.184 93.184 0 0 0-4.437334-15.701334l-50.176-117.077333h-10.922666l-50.858667 116.394667a102.4 102.4 0 0 0-4.437333 16.384v-133.802667h-19.114667v155.306667h26.965333l45.397334-105.813334a136.533333 136.533333 0 0 0 6.826666-19.114666q5.12 14.336 7.168 19.456l46.421334 105.472h25.6v-154.282667zM648.533333 380.245333v-57.685333h-19.797333v154.282667h44.032a57.002667 57.002667 0 0 0 38.912-11.946667 43.349333 43.349333 0 0 0 13.994667-34.133333 46.762667 46.762667 0 0 0-16.042667-36.864 56.32 56.32 0 0 0-40.277333-13.312z m0 79.189334v-61.781334h18.432a41.301333 41.301333 0 0 1 27.648 8.192 29.354667 29.354667 0 0 1 9.557334 23.552q0 29.696-34.133334 29.696zM748.202667 349.866667a57.002667 57.002667 0 0 1 34.133333-12.288 38.229333 38.229333 0 0 1 25.258667 7.850666 25.941333 25.941333 0 0 1 9.216 21.162667q0 29.354667-41.984 29.354667h-12.970667v16.042666h12.288q37.205333 0 37.205333 27.648t-26.282666 23.552a49.493333 49.493333 0 0 1-30.72-10.922666v18.432a68.266667 68.266667 0 0 0 34.133333 8.874666 46.762667 46.762667 0 0 0 31.744-10.24 34.133333 34.133333 0 0 0 11.946667-26.624 37.546667 37.546667 0 0 0-31.061334-38.912 41.642667 41.642667 0 0 0 26.624-11.946666 34.133333 34.133333 0 0 0 9.898667-24.917334 41.984 41.984 0 0 0-15.018667-34.133333 59.733333 59.733333 0 0 0-39.936-12.629333 68.266667 68.266667 0 0 0-34.133333 8.192z"  horiz-adv-x="1262" />

    
    <glyph glyph-name="-1" unicode="&#58958;" d="M631.466667-83.968A467.968 467.968 0 1 0 1099.434667 384 468.309333 468.309333 0 0 0 631.466667-83.968z m0 902.485333A434.517333 434.517333 0 1 1 1065.984 384 435.2 435.2 0 0 1 631.466667 818.517333zM442.026667 322.56h-81.578667v154.282667h19.797333v-136.533334h61.44zM447.829333 397.994667a84.650667 84.650667 0 0 0 20.138667 59.392 70.656 70.656 0 0 0 54.954667 22.186666 68.266667 68.266667 0 0 0 51.882666-21.504 80.554667 80.554667 0 0 0 19.797334-56.32 84.992 84.992 0 0 0-20.138667-59.733333 68.266667 68.266667 0 0 0-53.930667-22.186667 68.266667 68.266667 0 0 0-52.906666 21.504 80.213333 80.213333 0 0 0-19.797334 56.661334z m20.821334 0a68.266667 68.266667 0 0 1 14.336-45.056 46.421333 46.421333 0 0 1 37.205333-17.066667 48.810667 48.810667 0 0 1 38.912 16.042667 68.266667 68.266667 0 0 1 13.994667 45.397333 68.266667 68.266667 0 0 1-13.994667 46.08 47.104 47.104 0 0 1-37.888 16.384 48.128 48.128 0 0 1-38.229333-17.066667 68.266667 68.266667 0 0 1-14.336-43.349333zM741.034667 333.141333a102.4 102.4 0 0 0-52.224-13.312 71.68 71.68 0 0 0-53.930667 21.162667 77.824 77.824 0 0 0-20.48 56.661333 80.554667 80.554667 0 0 0 22.528 58.709334 77.824 77.824 0 0 0 58.026667 22.869333 102.4 102.4 0 0 0 42.325333-7.850667v-21.504a81.237333 81.237333 0 0 1-44.032 11.605334 54.954667 54.954667 0 0 1-41.642667-17.408 63.488 63.488 0 0 1-16.384-45.397334 63.829333 63.829333 0 0 1 13.312-44.714666 52.906667 52.906667 0 0 1 40.618667-16.042667 61.781333 61.781333 0 0 1 30.037333 6.826667v41.642666h-34.133333v17.749334h53.589333zM765.952 397.994667a84.650667 84.650667 0 0 0 19.114667 59.392 70.656 70.656 0 0 0 54.954666 22.186666 68.266667 68.266667 0 0 0 51.882667-21.504 80.554667 80.554667 0 0 0 19.797333-56.32 84.992 84.992 0 0 0-20.138666-59.733333 68.266667 68.266667 0 0 0-53.930667-22.186667 68.266667 68.266667 0 0 0-52.565333 21.845334 80.213333 80.213333 0 0 0-19.114667 56.32z m20.821333 0a68.266667 68.266667 0 0 1 14.336-45.056 46.421333 46.421333 0 0 1 37.205334-17.066667 48.810667 48.810667 0 0 1 38.912 16.042667 68.266667 68.266667 0 0 1 13.994666 45.397333 68.266667 68.266667 0 0 1-13.994666 46.08 47.104 47.104 0 0 1-37.888 16.384 48.128 48.128 0 0 1-38.229334-17.066667 68.266667 68.266667 0 0 1-14.336-43.349333z"  horiz-adv-x="1262" />

    


  </font>
</defs>
</svg>
